<?xml version="1.0" encoding="utf-8"?>
<!-- Generator: Adobe Illustrator 17.0.0, SVG Export Plug-In . SVG Version: 6.00 Build 0)  -->
<!DOCTYPE svg PUBLIC "-//W3C//DTD SVG 1.1//EN" "http://www.w3.org/Graphics/SVG/1.1/DTD/svg11.dtd">
<svg version="1.1" id="Layer_1" xmlns="http://www.w3.org/2000/svg" xmlns:xlink="http://www.w3.org/1999/xlink" x="0px" y="0px"
	 width="841.89px" height="595.28px" viewBox="0 0 841.89 595.28" enable-background="new 0 0 841.89 595.28" xml:space="preserve">
<radialGradient id="SVGID_1_" cx="10298.2246" cy="-16223.1211" r="2629.6907" fx="9820.4346" fy="-15941.4355" gradientTransform="matrix(0.1057 0.1207 -0.1207 0.1057 -2459.3176 754.2297)" gradientUnits="userSpaceOnUse">
	<stop  offset="0.3005" style="stop-color:#FFFFFF"/>
	<stop  offset="0.6667" style="stop-color:#BDEBFF"/>
	<stop  offset="0.9617" style="stop-color:#62ACD6"/>
	<stop  offset="1" style="stop-color:#396584"/>
</radialGradient>
<path fill="url(#SVGID_1_)" d="M456.136,372.803c-70.566,61.767-177.846,54.637-239.619-15.932
	c-61.77-70.566-54.639-177.849,15.929-239.62c70.564-61.768,177.851-54.632,239.62,15.933
	C533.836,203.754,526.702,311.033,456.136,372.803z"/>
<radialGradient id="SVGID_2_" cx="9090.8809" cy="-16454.9453" r="2315.9397" gradientTransform="matrix(0.1057 0.1207 -0.1207 0.1057 -2459.3176 754.2297)" gradientUnits="userSpaceOnUse">
	<stop  offset="0.3005" style="stop-color:#FFFFFF"/>
	<stop  offset="0.6667" style="stop-color:#91F2FF"/>
	<stop  offset="0.8962" style="stop-color:#00A4C7"/>
	<stop  offset="1" style="stop-color:#005FAB"/>
</radialGradient>
<path fill="url(#SVGID_2_)" d="M468.574,136.242c-60.082-68.635-164.432-75.577-233.07-15.497
	c-68.637,60.082-75.573,164.43-15.494,233.066c60.084,68.642,164.431,75.575,233.069,15.496
	C521.714,309.228,528.652,204.882,468.574,136.242z"/>
<radialGradient id="SVGID_3_" cx="9626.3916" cy="-16226.5635" r="2180.0806" fx="10053.3672" fy="-15626.4746" gradientTransform="matrix(0.1057 0.1207 -0.1207 0.1057 -2459.3176 754.2297)" gradientUnits="userSpaceOnUse">
	<stop  offset="0.3005" style="stop-color:#FFFFFF"/>
	<stop  offset="0.6667" style="stop-color:#91F2FF"/>
	<stop  offset="0.9617" style="stop-color:#3DBBD6"/>
	<stop  offset="1" style="stop-color:#226E84"/>
</radialGradient>
<path fill="url(#SVGID_3_)" d="M468.21,136.558c-59.904-68.439-163.95-75.357-232.39-15.452
	c-68.437,59.906-75.357,163.952-15.45,232.395c59.91,68.439,163.956,75.353,232.393,15.445
	C521.201,309.042,528.118,204.999,468.21,136.558z M223.379,350.868c-58.455-66.78-51.701-168.304,15.076-226.755
	c66.777-58.451,168.297-51.701,226.749,15.077c58.451,66.779,51.704,168.301-15.076,226.746
	C383.352,424.391,281.831,417.645,223.379,350.868z"/>
<path fill="#FFFFFF" d="M445.57,360.731c-63.901,55.935-161.047,49.478-216.983-14.427
	c-55.935-63.898-49.474-161.046,14.427-216.981c63.9-55.93,161.044-49.476,216.981,14.428
	C515.929,207.65,509.472,304.798,445.57,360.731z"/>
<g>
	<g>
		<g>
			
				<radialGradient id="SVGID_4_" cx="394.5355" cy="170.5795" r="64.5973" fx="380.5452" fy="175.2817" gradientTransform="matrix(3.4456 0 0 3.4456 -976.8615 -333.1992)" gradientUnits="userSpaceOnUse">
				<stop  offset="0" style="stop-color:#FFFFFF"/>
				<stop  offset="0.1033" style="stop-color:#FAFEFF"/>
				<stop  offset="0.2287" style="stop-color:#EBFAFF"/>
				<stop  offset="0.3656" style="stop-color:#D2F4FF"/>
				<stop  offset="0.5108" style="stop-color:#B0EBFF"/>
				<stop  offset="0.6624" style="stop-color:#84DFFF"/>
				<stop  offset="0.8194" style="stop-color:#4ED1FF"/>
				<stop  offset="0.9782" style="stop-color:#0FC1FF"/>
				<stop  offset="1" style="stop-color:#06BFFF"/>
			</radialGradient>
			<path fill="url(#SVGID_4_)" d="M506.017,245.03c0,89.315-72.41,161.727-161.727,161.727
				c-89.323,0-161.727-72.411-161.727-161.727c0-89.323,72.404-161.73,161.727-161.73C433.607,83.3,506.017,155.708,506.017,245.03z
				"/>
		</g>
	</g>
	<g>
		
			<radialGradient id="SVGID_5_" cx="373.4614" cy="166.9856" r="48.7152" fx="373.4629" fy="204.3356" gradientTransform="matrix(3.3374 0 0 3.4063 -901.0001 -319.6489)" gradientUnits="userSpaceOnUse">
			<stop  offset="0" style="stop-color:#90E1FF"/>
			<stop  offset="0.4718" style="stop-color:#51CFFF"/>
			<stop  offset="0.9892" style="stop-color:#0481D1"/>
		</radialGradient>
		<path fill="url(#SVGID_5_)" d="M241.281,120.912c0.04-0.02,0.074-0.033,0.101-0.047c0.04-0.04,0.08-0.067,0.114-0.101
			C241.428,120.819,241.342,120.857,241.281,120.912z"/>
		
			<radialGradient id="SVGID_6_" cx="393.8521" cy="122.6852" r="0.0096" fx="393.8496" fy="122.6945" gradientTransform="matrix(3.3374 0 0 3.4063 -901.0001 -319.6489)" gradientUnits="userSpaceOnUse">
			<stop  offset="0" style="stop-color:#90E1FF"/>
			<stop  offset="0.4718" style="stop-color:#51CFFF"/>
			<stop  offset="0.9892" style="stop-color:#0481D1"/>
		</radialGradient>
		<path fill="url(#SVGID_6_)" d="M413.485,98.267c-0.034-0.013-0.062-0.02-0.087-0.027c0.019,0.007,0.034,0.014,0.046,0.021
			C413.458,98.261,413.465,98.267,413.485,98.267z"/>
		
			<radialGradient id="SVGID_7_" cx="373.2097" cy="166.1051" r="47.8864" fx="373.2112" fy="202.8196" gradientTransform="matrix(3.3374 0 0 3.4063 -901.0001 -319.6489)" gradientUnits="userSpaceOnUse">
			<stop  offset="0" style="stop-color:#90E1FF"/>
			<stop  offset="0.4718" style="stop-color:#51CFFF"/>
			<stop  offset="0.9892" style="stop-color:#0481D1"/>
		</radialGradient>
		<path fill="url(#SVGID_7_)" d="M492.673,296.71c-0.29,0.576-0.316,1.785-0.599,2.216c-0.788,1.395-2.496,4.447-3.581,5.749
			c-1.397,1.579-2.846,1.885-3.587,5.432c-0.146,1.18,0.049,2.633-0.128,3.396c-0.073,0.123-1.547,3.431-1.547,3.431
			c-0.134,0.052-1.118,1.422-1.19,1.703c-0.271,1.041-0.505,2.121-0.129,2.489c-0.114,0.499-0.234,0.874-0.512,1.696
			c-0.437,1.797-0.014,3.17,0.989,2.686c2.497-1.292,3.904-5.552,5.345-8.917c1.783-4.162,3.315-7.778,4.42-12.86
			c0.135,0.01,0.155-0.06,0.518,0.084c0.014-0.36,0.168-0.672,0.216-1.028C492.929,301.092,493.919,296.632,492.673,296.71z"/>
		
			<radialGradient id="SVGID_8_" cx="373.212" cy="166.1077" r="47.8836" fx="373.2135" fy="202.82" gradientTransform="matrix(3.3374 0 0 3.4063 -901.0001 -319.6489)" gradientUnits="userSpaceOnUse">
			<stop  offset="0" style="stop-color:#90E1FF"/>
			<stop  offset="0.4718" style="stop-color:#51CFFF"/>
			<stop  offset="0.9892" style="stop-color:#0481D1"/>
		</radialGradient>
		<path fill="url(#SVGID_8_)" d="M503.702,228.354c0.021,0.007,0.035,0,0.054,0c-0.523-5.039-1.271-10.016-2.232-14.912
			c-0.466,1.534-0.507,3.533-2.403,3.079c-1.085-0.215-1.493-0.857-1.556-1.871c-0.16-0.835,0.082-1.39-0.013-2.251
			c-0.054-0.256-0.162-0.541-0.128-0.808c-0.74-0.057,0.323,0.909-0.558,1.118c-0.135-0.626-0.337-0.946-0.439-1.736
			c-0.996-0.643-2.334-3.995-2.805-5.811c-0.149-0.572-0.249-0.906-0.305-1.696c-0.167-1.043-0.052-2.211,0.44-2.076
			c1.109,0.454,2.14,2.822,2.772,4.495c0.066,0.31,0.095,0.878,0.342,1.336c0.459,0.986,0.948,0.636,1.475,1.625
			c0.391,0.792,0.787,1.777,1.326,2.328c1.117,0.519,1.057,0.3,1.468,0.516c0.006-0.014,0.006-0.023,0.012-0.041
			c-1.547-7.436-3.587-14.684-6.095-21.71c-0.103-0.057-0.216-0.128-0.432-0.209c-0.85-0.414-1.139-0.474-1.615-1.126
			c-0.209-0.583-0.316-1.05-0.849-1.484c-0.679-0.437-1.016-0.949-1.299-1.683c-0.364-0.666-0.167-0.986-0.551-1.766
			c-0.304-0.491-0.519-0.549-0.688-1.114c0.262,0.223,0.229,0.206,0.546,0.341c0.464-1.158-0.769-1.676,0.424-2.006
			c-1.091-1.271-3.412-5.027-3.89-6.793c-0.042-0.555-1.138-1.666-1.373-2.437c0-0.282,0.114-1.443,0.264-1.921
			c0.168,0.172,0.47,0.148,0.739,0.105c-10.867-21.091-26.111-39.457-44.51-53.831c-0.525-0.051-0.849,0.034-1.911-0.313
			c0.201-0.579,1.171,0.296,1.049-0.222c-0.282-0.394-2.361-0.717-3.445-1.083c-0.674-0.347-1.178-0.552-1.622-0.892
			c-0.324,0.061-1.333-0.346-1.318-0.154c0.119,0.235,0.547,0.366,1.177,0.659c-1.225-0.229-2.441-0.763-3.155-0.46
			c-0.027-0.205-0.122-0.216-0.161-0.421c-1.48-0.379-1.515,0.011-2.457-0.181c-0.026-0.145-0.088-0.158-0.115-0.306
			c-1.157-0.276-2.489-0.669-3.135-0.657c0.208,0.131,0.457,0.296,0.686,0.373c-0.599,0-2.046-0.394-2.469-0.582
			c-0.714-0.185-0.983-0.155-1.434,0.048c0.647,0.141,0.631,0.127,1.124,0.353c-0.128-0.074-0.754,0.205-1.112,0.124
			c-0.928-0.198-0.295-0.165-1.466-0.457c0.182-0.319-0.094,0.02-0.552-0.253c-0.275,0.081-0.241,0.138-0.518,0.222
			c-0.223-0.003-0.37-0.185-0.593-0.222c-0.579-0.115-0.82-0.225-0.922,0.219c0,0-0.41,0.114-0.061,0.248
			c-0.31-0.054-0.768,0.044-1.218,0.192c1.729,0.518,3.85,0.737,5.585,1.077c-0.121,0.958-1.783,1.057-3.25,1.012
			c-1.407-0.093-2.295,0.104-3.082,0.572c0.04,0.037-0.539,0.606-0.539,0.606c-0.585-0.088-0.262,0.982-1.022,1.056
			c-2.072,0.424-3.224,0.875-6.676,0.697c0.694,0.252,1.085,0.27,1.919,0.572c-2.801-0.673-2.7,0.147-4.139,0.155
			c-1.664-0.125-2.497,0.235-3.38,0.699c-0.49,0.323-1.156,0.431-1.076,0.97c0.155,1.161,1.387,2.803,2.718,3.688
			c-0.349,0.32-1.203,0.524-1.15,0.814c0.641,0.091,1.368,0.128,2.1,0.104c0.042,0.216,0.054,0.367,0.095,0.576
			c-0.304,0.061-1.319,0.046-1.307,0.386c0.102,0.132,3.372,1.474,3.864,1.612c3.532,0.394,6.178-0.249,7.665-1.103
			c0.524,0.342,0.836,0.763,1.722,1.177c-0.208,0.068-0.295,0.266-0.274,0.479c0.1,0.706,1.305,1.063,1.836,1.688
			c0.653,0.989,0.647,1.491,2.094,2.369c0.015,0.148-0.089,0.216-0.074,0.36c-0.033,0.212,1.125,2.362,1.764,2.51
			c1.925,0.353,1.837-1.477,3.156-1.227c0.586,0.07,1.729,0.437,2.799,0.655c0.061-0.845,1.844-0.501,1.817-1.393
			c-0.403-0.195-1.117-0.411-1.244-0.881c-0.189-0.842-0.748-2.406,0.705-2.025c0.768,0.053,2.571-0.267,2.518-0.795
			c-0.188-0.71-0.699-1.699-2.073-2.133c-0.027-0.296-0.363-0.579-0.72-0.774c-0.398-0.41-0.888-0.892-1.394-1.275
			c1.071-0.031,0.122-0.761,0.553-1.168c0.532-0.426,1.521-0.44,2.624-0.417c1.359-0.053,4.146-0.195,3.957-0.925
			c0.288-0.162-0.067-0.259-0.249-0.741c-0.229-1.036,1.092-1.12,3.232-0.43c1.654,0.511,3.639,1.43,3.963,2.163
			c0.188,0.701-2.06,0.851-2.868,0.824c-1.547,0-0.679,1.205-3.499,0.353c0.082,0.327,0.222,1.35,0.296,1.643
			c0.177,0.438,0.392,0.914,1.125,1.268c-0.296,0.04-0.788,0.07-0.714,0.498c0.204,0.864,1.83,1.652,3.229,2.029
			c0.162,0.437,0.412,0.605,1.287,0.801c1.155,0.323,1.93,0.763,3.19,0.958c1.229,0.559,2.395,0.555,2.785,0.026
			c0.719,0.532,3.135,1.376,3.876,2.178c-0.941-0.061-0.983,0.702-1.805,0.505c-0.996-0.411-3.377-1.66-4.856-2.083
			c-1.354-0.384-4.948,0.117-3.837,1.012c1.44,0.871,1.939,0,3.432,1.527c1.124,1.114,0.074,1.673-0.451,1.484
			c-1.411-0.329-1.729-1.319-2.92-1.652c-1.139-0.292-1.77,1.784-1.568,2.77c0.31,1.518-2.206,0.431-2.127,1.747
			c-0.747-0.115-1.695-0.273-2.57-0.475c0.114-0.145,0.088-0.229,0.201-0.378c-0.491-0.204-1.56-0.512-2.529-0.683
			c-0.882-0.195-1.973,0.27-2.598,0.206c-1.158,0.158-1.812-0.488-3.123-0.337c-0.392,0.084-0.417,0.354-1.244,0.165
			c0,0-1.415-0.765-1.434-0.862c-0.049-0.131,0.383-0.158,0.377-0.407c-1.763-0.407-3.096,0.384-5.262-0.016
			c-0.224-0.025-2.512-2.275-2.686-2.474c-0.653-0.087,0.968,1.508,0.081,1.366c-0.068-0.162-0.061-0.319-0.087-0.501
			c-0.433-0.053-0.875-0.494-1.01-0.936c-0.068-0.851,0.754-1.076,1.493-1.362c0.249-0.081,0.848-0.046,0.875-0.282
			c-0.094-0.071-0.013-0.239-0.059-0.354c-0.595-0.02-1.537-0.246-1.598-0.72c-0.113-0.457-0.094-0.586,0.276-1.05
			c-0.02-0.185-0.066-0.326-0.094-0.521c-1.904,0.417-4.879,0.037-4.671,1.945c0.15,1.127,1.501,1.547,2.041,2.877
			c0.046-0.004,0.726,0.975,0.745,1.211c0.021,0.372-1.204,0.579-1.683,0.521c-0.727-0.094-1.48-0.314-1.984-0.128
			c-0.169,0-0.472,0.259-0.685,0.124c-0.533,0.061-0.089,0.003-1.164-0.158c-1.919-0.283-4.719,1.355-5.849,2.025
			c-0.082,0.037-0.769,0.299-0.787,0.525c0.08,0.659,0.443,1.379-0.23,1.759c-0.303,0.216-3.728,0.794-4.233,0.841
			c-0.369,0.011-0.781,0.031-1.219,0.003c-0.356,1.424,0.459,1.915-2.228,1.706c-0.146,0.441-0.699,0.798-1.439,0.754
			c-1.051-0.165-1.979-0.448-2.759-0.976c-0.235,0.05-0.653-0.02-0.896-0.064c-0.021,0.141,0.007,0.326,0.034,0.471
			c0.081,0.165-0.088,1.07,0.553,1.218c-0.022,0.127,0.006,0.29,0.026,0.417c-0.277,0.127-1.339,0.238-2.059,0.148
			c-0.599,0.004-2.242-0.458-2.504-0.757c-0.923,0.068-3.386,0.299-3.411,0.858c0.019,0.074,0.093,0.169,0.114,0.242
			c0.141,0.878,4.084,1.656,5.605,2.049c0.362,0.067,0.559,0.384,1.118,0.501c0.135,0.898,1.365,3.355,3.255,3.49
			c0.042,0.444,0.606,0.37,0.627,0.965c0.008,0.223-0.183,0.666-0.311,0.906c0.062,0,0.128-0.047,0.175-0.084
			c0.027,0.336,0.204,1.507,0.216,1.729c0.115,1.218-1.514,1.013-1.466,2.325c-0.222-0.02-1.643,0.192-2.289,0.175
			c-0.881-0.097-1.521-0.515-2.618-0.407c-1.514-0.03-2.92-0.188-4.474-0.236c-0.365-0.06-1.3-0.265-1.615-0.47
			c-1.455-0.021-2.787-0.115-4.24-0.186c-0.446,0.108-1.131-0.266-1.427-0.313c-0.443,0.03-3.681,1.266-3.735,1.592
			c-0.007,0.505,1.077,1.481,1.138,2.509c0.073,1.656-0.733,3.396-0.701,5.048c0.007,0.393-0.968,0.571-1.009,1.507
			c0.035,0.44,0.768,1.006,1.569,0.986c-0.008,1.52,0.1,2.681,0.12,4.115c0.021,0.208,0.148,0.764,0.802,0.717
			c1.42,0.104,2.47-0.508,4.124-0.475c2.207,0.208,2.41,3.206,3.864,3.362c2.174-0.078,3.223-1.572,5.571-1.515
			c0.364,0.003,2.04-0.269,2.927-0.047c0.021,0,0.021-0.083-0.006-0.083c1.925,0.592,1.944-1.447,3.089-1.995
			c1.939-0.804,2.362-2.538,3.507-3.789c-0.364-0.152-0.95-0.468-0.982-0.915c0-1.45,2.393-3.886,4.036-4.085
			c1.932-0.245,3.809-0.515,4.273-1.726c-0.208-0.38-0.476-1.037-0.645-1.443c-0.061-0.996,1.252-1.45,2.639-1.342
			c1.735,0.202,1.338,0.83,3.311,0.979c1.972,0.158,2.907-0.784,4.543-1.232c0.667-0.154,0.713-0.975,2.293-0.8
			c3.245,0.363,5.351,2.231,5.668,4.539c0.148,0.39,1.5,0.837,2.126,1.353c1.515,1.248,2.094,1.797,4.771,2.594
			c0.048,0.33,1.32,0.78,1.615,0.824c0.154,0.296,4.221,3.907,4.423,3.994c0.256,0.448,0.848,0.959,0.994,1.861
			c0.042,0.663-0.174,1.663-1.176,1.555c-0.021,0.222,0.397,0.444,0.928,0.551c1.137,0.067,1.023-1.239,1.635-1.746
			c0,0,0.612-0.551,0.634-0.831c-0.094-0.852-0.774-0.495-0.867-1.33c-0.081-0.548-0.135-1.517,0.846-1.44
			c0.949,0.155,1.407,0.976,2.611,1.272c0.075-1.329-2.273-2.54-3.922-3.441c-0.432-0.216-2.368-0.815-2.201-1.515
			c0.026-0.151,0.067-0.323,0.095-0.47c-1.206-0.081-1.92,0.029-3.219-0.553c-0.53-0.329-1.527-1.941-1.972-2.833
			c-0.227-0.492-1.056-1.679-2.335-2.16c-1.097-0.333-1.796-0.828-1.91-1.739c-0.068-0.327,0.048-0.714,0.202-1.047
			c-0.148-0.023-0.491-0.309-0.459-0.417c-0.155-0.583,1.636-0.417,2.558-0.713c0.391,0.39,0.19,1.609,1.253,1.753
			c0.801,0.195,1.6,0.238,2.401,0.339c0.209,1.43,2.962,4.24,4.725,4.553c0.296,0.175,0.754,0.07,1.091,0.161
			c0.128,0.798,1.325,1.161,2.496,1.679c1.097,0.683,2.875,2.124,3.089,2.968c0,0.477,0.169,1.046,0.203,1.588
			c0.14,1.275-0.161,1.356,0.847,2.265c0.741,0.683,1.378,1.315,1.83,2.221c0,0.111,0.243,0.689,0.533,0.747
			c0.417,0.017,0.854,0.12,1.271,0.188c-0.161,0.32-0.761,1.188-0.733,1.763c0.154,1.396,1.993,3.358,3.19,3.583
			c0.352-0.03,0.688,0.115,1.03,0.152c-0.828-0.569-0.183-1.414-0.222-1.841c-0.033-0.565-0.499-1.919-0.707-2.261
			c0-0.148-0.061-0.347-0.061-0.492c0.315,0.336,1.265,1.85,2.127,2.184c0.034,0,0.12,0.005,0.141,0.009
			c0.182-0.474,0.674-0.973,1.043-1.124c-0.094-0.161-0.248-0.427-0.348-0.599c-0.588-0.07-2.755-1.961-2.755-2.126
			c-0.087-0.142,0.176-0.347,0.196-0.683c-0.418-0.469-0.977-1.087-1.561-1.572c0.019-0.276,0.335-0.548,0.712-0.538
			c0.652,0.117,0.964,0.952,1.993,1.221c0.134-0.444,0.046-0.848-0.183-1.326c0.861-0.084,1.083-0.501,2.22-0.367
			c1.239,0.324,1.44,0.862,2.464,1.128c0.948,0.104,1.4,0.34,2.222,0.155c0.699-0.078,1.815,0.168,2.355,0.108
			c0.369,0.054,0.504,0.145,0.812-0.054c-0.517-0.636-2.367-1.75-2.576-2.968c-0.121-0.801,0.86-1.759,1.386-2.129
			c-0.074-0.472-0.194-0.986-0.269-1.478c0.107-0.39,0.195,0.131,0.265-0.7c-0.13-0.545,0.517-0.646,1.137-0.629
			c-0.162-0.229-0.068-0.612-0.229-0.854c1.386-0.074,1.044-2.029,2.437-1.686c0.518,0.067,2.039,1.414,3.707,2.029
			c0.289,0.053-1.11,0.39-0.899,0.622c1.061,1.285,2.158,2.568,2.657,2.733c0.888,0.226,3.244-0.145,3.539-0.478
			c-0.148-0.031-1.581-0.7-1.581-0.704c-0.29-0.057-1.044-0.42-1.125-1.1c-0.087-0.428,3.479-0.519,4.771-0.552
			c0,0-0.322,0.535-0.706,0.548c0.195,0.307,2.018,2.18-0.981,1.982c2.186,3.617,7.535,5.622,8.681,9.936
			c0.1,0,0.141-0.057,0.181,0.034c-0.651,0.114-1.157,0.747-2.119,0.414c-0.97-0.296-1.917-0.542-2.915-0.915
			c-0.68-0.192-2.718-1.158-2.913-1.905c-1.265-0.315-1.399-1.11-2.908-1.604c-1.109-0.242-2.55-0.616-3.315-0.377
			c-0.829,0.327-1.535,0.723-2.304,0.538c-0.686-0.121-1.266-0.286-1.95-0.44c-0.364-0.057-1.515-0.548-1.481-0.047
			c0.102,0.373,0.426,0.346,0.632,0.814c-1.069,0.236-6.978-1.867-6.851-0.027c0.008,0.333,0.789,0.377,1.212,0.521
			c-0.094,0.293,0.02,0.34,0.107,0.72c0.102,1.218-0.577,0.892-1.21,1.37c1.123,0.632,1.871,1.332,2.618,2.479
			c-0.506,0.647,1.568,2.178,2.026,2.71c-0.062,0.154-0.25,0.346-0.479,0.377c0.236,0.141,0.479,0.08,0.741,0.134
			c1.125-0.427,2.105,1.669,3.37,1.972c1.179,0.175,0.621-1.507,2.006-1.356c1.354,0.326,2.828,2.554,4.159,2.891
			c1.824,0.346,1.905-0.562,2.692-1.253c0.256,0.31,0.632,0.724,1.252,0.872c0.564,0.159,0.37-0.235,0.969-0.43
			c0.094,0.218,0.02,0.528,0.121,0.747c-0.142,0.154-0.384,0.242-0.276,0.659c0.053,0.932,0.519,1.998,0.761,3.304
			c0.229,1.706-0.78,1.895-0.988,3.368c-0.095,1.494-0.276,2.255-0.411,3.95c-0.148,0.25-0.506,0.219-0.391,0.785
			c0.074,0.178,0.154,0.4,0.235,0.623c-0.013-0.044-0.033-0.094-0.053-0.131c-0.761,0.091-0.902,0.024-1.812-0.151
			c-1.439-0.226-2.732-1.168-3.956-1.376c-2.08-0.3-0.876,0.629-2.954,0.347c-2.431-0.398-5.546-1.979-7.914-3.251
			c-1.253-0.686-2.706-0.208-3.54-1.261c-0.316-0.41-1.105-0.882-1.285-2.036c-0.538-0.091-1.104-0.121-1.629-0.206
			c-0.088-0.01-0.202-0.111-0.243-0.191c-2.261,0.518-4.044,0.333-3.849,3.035c0.041,0.468,0.101,1.124,0.134,1.689
			c-0.02,0.356-0.707,1.178-1.453,1.124c-5.781-0.687-9.543-6.491-15.148-7.103c-0.78-0.033-1.548-0.125-2.37-0.195
			c-1.633-0.151-3.929-2.197-4.145-4.357c-0.14-1.272,0.875-1.828,0.869-3.143c-0.048-0.64-1.184-1.212-1.26-1.965
			c-0.08-1.131,1.043-0.751,1.104-2.073c-0.436,0.118-0.794,0.423-1.232,0.394c-1.479-0.081-0.975-1.659-2.713-1.751
			c-1.648-0.211-1.578,1.063-3.377,0.969c-0.948-0.087-1.479-0.713-2.691-0.807c-1.325-0.111-2.63,1.063-3.641,0.985
			c-0.586-0.067-1.925-0.966-3.21-1.076c-4.147-0.283-9.833,1.228-13.514,2.725c-1.09,0.532-2.981,1.266-5.014,1.211
			c-3.277-0.121-4.4-0.67-6.892-2.392c-0.929,0.73-1.178,2.864-1.95,3.768c-0.419,0.249-1.037,0.576-1.603,0.861
			c-2.368,2.715-4.938,2.904-7.517,5.872c-1.137,1.39-1.319,4.279-1.036,5.585c-1.092,1.371-2.732,3.52-4.126,4.358
			c-1.797,0.885-5.101,1.918-6.582,3.758c-2.381,3.059-4.125,6.491-5.478,10.351c-0.525,1.447-2.785,2.699-2.82,4.583
			c0.016,4.041,2.195,6.827,2.242,11.202c-0.015,2.449-1.77,7.066-3.896,8.203c0.673,1.463,2.464,3.2,2.482,4.624
			c0.015,0.644,0.458,1.639,0.484,3.13c-0.04-0.059-0.221,0.003-0.296,0c0.37,0.41,0.802,0.756,1.259,1.362
			c0.061,0.279,5.108,4.956,5.821,5.467c2.469,2.002,3.009,4.253,4.825,7.117c2.173,3.162,6.339,2.497,10.228,8.396
			c0.216,0.281,1.771,0.794,2.855,0.754c3.802-0.02,6.305-1.897,10.16-2.01c2.039,0.012,4.43,1.384,5.862,1.377
			c1.582,0.007,1.926-1.252,3.413-1.753c3.68-1.26,9.024-3.711,13.728-3.837c3.823,0.037,0.564,5.912,3.412,6.015
			c0.861-0.018,3.938-0.528,5.611-0.59c3.077-0.044,4.543,1.714,5.581,3.772c-0.95,0.794-0.943,3.512-1.003,4.664
			c0,0.286-0.317,0.599-0.043,1.383c-0.469,0.365-2.124,2.731-2.158,3.76c-0.027,4.368,4.462,8.4,6.629,11.292
			c0.967,1.435,0.659,3.499,1.178,5.256c0.7,2.124,1.353,3.424,1.676,7.127c0.107,1.937,0.915,2.655,0.732,4.836
			c-0.397,4.54-5.107,7.201-5.734,13.096c-0.477,5.485,1.63,8.059,3.542,11.542c0.55,1,1.418,1.244,1.298,2.351
			c-0.156,0.617-0.194,1.36-0.27,2.069c-0.888,6.711,0.733,8.874,2.901,10.826c0.544,0.494,1.291,3.557,2.301,5.589
			c0.276,0.721,0.088,1.519-0.647,2.189c0.6,0.552,0.243,1.471-0.046,2.792c0.12-0.107,0.329-0.251,0.794-0.48
			c0.269,0.627,0.814,1.032,1.999,0.76c2.725-0.722,3.848-2.849,6.757-3.62c0.766-0.153,0.961,0.284,1.722,0.135
			c0.64-0.179,1.197-0.669,2.086-0.981c0.465-1.239,2.537-1.182,3.77-1.977c2.994-2.045,4.267-4.197,6.285-6.75
			c1.386-1.554,2.086-1.884,3.801-3.69c0.815-1.117,2.357-2.91,2.814-4.817c0.122-0.625-0.121-1.002-0.546-1.148
			c1.052-1.948,0.137-1.373,2.473-3.113c0.778-0.416,1.762-0.738,2.489-1.614c0.746-0.815,1.459-3.77,1.782-5.189
			c0.492-2.636-0.996-1.697-0.592-3.691c0.203-1.016,1.197-2.35,2.086-2.683c1.595-5.016,8.015-5.854,9.166-11.657
			c0.115-0.546,0.216-0.86-0.16-1.35c0.302-1.623,0.449-3.179,0.739-4.785c0.094-0.549,0.274-1.192,0.403-1.784
			c0.061-0.155,0.513-0.773,0.513-1.208c0.262-1.497-1.536-2.8-1.272-5.479c0.27-2.391-0.472-4.2-0.203-6.681
			c0.161-2.281,1.636-2.975,2.188-4.997c0.814-3.128,2.189-2.953,3.5-4.852c0.444-0.72,0.841-3.714,1.347-4.373
			c1.433-1.58,2.652-3.036,3.948-4.788c1.791-2.446,2.297-4.514,3.668-7.707c1.131-2.698,2.947-9.02,2.955-13.391
			c-0.008-0.418-0.107-0.63-0.256-1.124c-1.259,0.759-2.375,1.95-4.019,2.449c-1.097,0.168-1.074-0.347-1.723-0.01
			c-0.639,0.313-0.639,1.333-1.353,1.339c-0.746-0.016-1.392-2.486-2.025-3.341c0.519-1.006-0.013-1.155,0.008-2.496
			c-1.71-0.155-2.121-3.312-2.941-4.381c-0.929-1.11-1.522-1.185-2.416-2.534c-1.076-1.553-0.464-3.476-1.556-5.612
			c-0.94-1.696-2.186-3.634-2.92-5.919c-0.027-1.51-0.128-2.87-0.262-4.313c-0.842-1.074-2.571-2.928-2.47-4.63
			c-2.113-5.02-4.367-9.768-6.696-14.751c-0.039-0.397-0.061-0.965-0.142-1.363c1.124,1.601,2.57,5.215,3.896,5.713
			c0.088-0.797,0.539-2.611,0.68-3.775c-0.013,0.996-0.061,1.936-0.054,2.454c0.075,0.199,1.011,1.685,1.197,2.065
			c0.857,1.403,1.461,2.315,2.234,3.873c0.222,0.461,0.694,1.245,0.963,2.029c0.108,0.441,0.175,1.635,0.524,2.211
			c0.169,0.252,0.93,0.191,1.138,0.546c0.17,0.255,0.438,0.756,0.801,1.129c0.337,1.505,1.103,2.002,1.331,3.89
			c0.156,3.113,0.689,4.734,2.618,5.565c0.089,1.955,1.327,4.573,1.999,5.542c0.634,1.003,1.662,1.911,1.549,3.677
			c-0.048,0.653-0.457,2.211,0.128,2.308c0,1.588,0.021,3.227,0.49,4.479c0.352,0.882-0.081,0.76,0.075,0.892
			c0.161,0.151,1.286,1.036,1.48,1.137c0.128-0.13,0.162-0.164,0.29-0.282c0.956-0.044,1.07-1.258,1.805-2.187
			c0.921,0.108,1.042,0.205,1.612,0.309c0.506-0.426,2.041-2.61,2.438-2.846c1.043-0.376,1.662-0.864,2.477-1.635
			c-0.155-0.134-0.148-0.467-0.169-0.684c0.034-1.612,1.737-1.632,2.564-1.914c-0.062-0.869,0.04-2.053,0.693-1.966
			C504.134,230.424,502.599,228.325,503.702,228.354z M481.313,174.491c0.06,0,0.041-0.021,0.087-0.008
			C481.462,174.484,481.374,174.491,481.313,174.491z"/>
		
			<radialGradient id="SVGID_9_" cx="373.2277" cy="165.9529" r="47.7376" fx="373.2292" fy="202.5533" gradientTransform="matrix(3.3374 0 0 3.4063 -901.0001 -319.6489)" gradientUnits="userSpaceOnUse">
			<stop  offset="0" style="stop-color:#90E1FF"/>
			<stop  offset="0.4718" style="stop-color:#51CFFF"/>
			<stop  offset="0.9892" style="stop-color:#0481D1"/>
		</radialGradient>
		<path fill="url(#SVGID_9_)" d="M414.792,98.927c-0.451-0.226-0.896-0.451-1.348-0.666c-0.174-0.007-0.296-0.078-0.477-0.098
			C413.363,98.354,413.95,98.644,414.792,98.927z"/>
		
			<radialGradient id="SVGID_10_" cx="373.1971" cy="166.0811" r="47.8676" fx="373.1986" fy="202.7812" gradientTransform="matrix(3.3374 0 0 3.4063 -901.0001 -319.6489)" gradientUnits="userSpaceOnUse">
			<stop  offset="0" style="stop-color:#90E1FF"/>
			<stop  offset="0.4718" style="stop-color:#51CFFF"/>
			<stop  offset="0.9892" style="stop-color:#0481D1"/>
		</radialGradient>
		<path fill="url(#SVGID_10_)" d="M422.078,102.941c0.076-0.003,0.129-0.023,0.182-0.03c-1.371-0.781-2.752-1.541-4.145-2.275
			c-0.52-0.169-1.184-0.366-1.669-0.494C416.83,100.821,420.337,102.103,422.078,102.941z"/>
		
			<radialGradient id="SVGID_11_" cx="373.2498" cy="166.2665" r="48.0089" fx="373.2513" fy="203.0749" gradientTransform="matrix(3.3374 0 0 3.4063 -901.0001 -319.6489)" gradientUnits="userSpaceOnUse">
			<stop  offset="0" style="stop-color:#90E1FF"/>
			<stop  offset="0.4718" style="stop-color:#51CFFF"/>
			<stop  offset="0.9892" style="stop-color:#0481D1"/>
		</radialGradient>
		<path fill="url(#SVGID_11_)" d="M413.398,98.24c-0.694-0.344-1.387-0.673-2.081-0.997
			C411.271,97.722,412.274,97.837,413.398,98.24z"/>
		
			<radialGradient id="SVGID_12_" cx="373.2062" cy="166.1244" r="47.8998" fx="373.2077" fy="202.8492" gradientTransform="matrix(3.3374 0 0 3.4063 -901.0001 -319.6489)" gradientUnits="userSpaceOnUse">
			<stop  offset="0" style="stop-color:#90E1FF"/>
			<stop  offset="0.4718" style="stop-color:#51CFFF"/>
			<stop  offset="0.9892" style="stop-color:#0481D1"/>
		</radialGradient>
		<path fill="url(#SVGID_12_)" d="M417.489,100.299c-0.646-0.343-1.292-0.662-1.944-0.989c-0.121-0.009-0.189,0.014-0.176,0.087
			C415.598,100.098,416.661,100.179,417.489,100.299z"/>
		
			<radialGradient id="SVGID_13_" cx="373.1988" cy="165.9855" r="47.7782" fx="373.2003" fy="202.617" gradientTransform="matrix(3.3374 0 0 3.4063 -901.0001 -319.6489)" gradientUnits="userSpaceOnUse">
			<stop  offset="0" style="stop-color:#90E1FF"/>
			<stop  offset="0.4718" style="stop-color:#51CFFF"/>
			<stop  offset="0.9892" style="stop-color:#0481D1"/>
		</radialGradient>
		<path fill="url(#SVGID_13_)" d="M411.837,98.126c-0.706-0.46-1.529-0.83-2.578-1.393
			C408.404,96.588,410.443,97.675,411.837,98.126z"/>
		
			<radialGradient id="SVGID_14_" cx="372.8896" cy="163.2526" r="45.431" fx="372.891" fy="198.0846" gradientTransform="matrix(3.3374 0 0 3.4063 -901.0001 -319.6489)" gradientUnits="userSpaceOnUse">
			<stop  offset="0" style="stop-color:#90E1FF"/>
			<stop  offset="0.4718" style="stop-color:#51CFFF"/>
			<stop  offset="0.9892" style="stop-color:#0481D1"/>
		</radialGradient>
		<path fill="url(#SVGID_14_)" d="M409.388,96.743c-0.027,0-0.095,0-0.122-0.01c0.054,0.021,0.095,0.047,0.149,0.067
			C409.447,96.8,409.428,96.743,409.388,96.743z"/>
		
			<radialGradient id="SVGID_15_" cx="373.892" cy="175.6509" r="56.4981" fx="373.8938" fy="218.968" gradientTransform="matrix(3.3374 0 0 3.4063 -901.0001 -319.6489)" gradientUnits="userSpaceOnUse">
			<stop  offset="0" style="stop-color:#90E1FF"/>
			<stop  offset="0.4718" style="stop-color:#51CFFF"/>
			<stop  offset="0.9892" style="stop-color:#0481D1"/>
		</radialGradient>
		<path fill="url(#SVGID_15_)" d="M409.192,96.686c0.026,0.006,0.095,0.04,0.066,0.046h0.007
			C409.293,96.727,409.225,96.693,409.192,96.686z"/>
		
			<radialGradient id="SVGID_16_" cx="373.2174" cy="166.1068" r="47.8777" fx="373.2189" fy="202.8146" gradientTransform="matrix(3.3374 0 0 3.4063 -901.0001 -319.6489)" gradientUnits="userSpaceOnUse">
			<stop  offset="0" style="stop-color:#90E1FF"/>
			<stop  offset="0.4718" style="stop-color:#51CFFF"/>
			<stop  offset="0.9892" style="stop-color:#0481D1"/>
		</radialGradient>
		<path fill="url(#SVGID_16_)" d="M369.829,136.939c0.452-0.064,1.381-0.064,1.776-0.154c0.795-0.249,1.772-1.124,3.319-1.077
			c0.961,0.056,1.844,0.205,2.408-0.148c0.721-0.357,0.041-1.125-0.008-1.555c-0.025-0.612-0.086-1.238-0.12-1.868
			c-0.013-0.433,1.589-0.282,1.602-0.716c-0.12-0.959-1.123-2.234-3.276-2.396c-0.438-0.034-1.138-0.044-1.561-0.09
			c-0.935-0.021-2.732,0.498-2.726,0.874c0.026,0.269,0.248,0.447,0.598,0.73c-0.484,0.283-2.112,0.451-2.664,0.475
			c-0.23-0.054-1.064-0.151-1.011,0.555c-0.04,0.542,0.909,0.865,1.836,1.232c-0.294,1.296-2.635,1.35-2.589,2.739
			C367.407,136.185,368.692,136.802,369.829,136.939z"/>
		
			<radialGradient id="SVGID_17_" cx="373.2144" cy="166.1852" r="47.9781" fx="373.2159" fy="202.97" gradientTransform="matrix(3.3374 0 0 3.4063 -901.0001 -319.6489)" gradientUnits="userSpaceOnUse">
			<stop  offset="0" style="stop-color:#90E1FF"/>
			<stop  offset="0.4718" style="stop-color:#51CFFF"/>
			<stop  offset="0.9892" style="stop-color:#0481D1"/>
		</radialGradient>
		<path fill="url(#SVGID_17_)" d="M375.065,123.581c0.948,0.132,1.684-0.431,1.629-1.06c-0.6,0.016-2.181,0.094-2.228,0.414
			C374.493,123.15,374.829,123.581,375.065,123.581z"/>
		
			<radialGradient id="SVGID_18_" cx="373.2061" cy="166.104" r="47.8829" fx="373.2076" fy="202.8158" gradientTransform="matrix(3.3374 0 0 3.4063 -901.0001 -319.6489)" gradientUnits="userSpaceOnUse">
			<stop  offset="0" style="stop-color:#90E1FF"/>
			<stop  offset="0.4718" style="stop-color:#51CFFF"/>
			<stop  offset="0.9892" style="stop-color:#0481D1"/>
		</radialGradient>
		<path fill="url(#SVGID_18_)" d="M378.08,125.257c-0.039,0.138-0.013,0.279,0.034,0.413c-0.018,0.046-0.573,0.363-0.585,0.632
			c0.012,0.219,0.827,0.414,1.393,0.512c-0.041,0.154,0.047,0.307,0.041,0.471c-0.129,0.104-0.216,0.246-0.338,0.343
			c0.021,0.29,0.047,0.555,0.061,0.848c0.201-0.026,0.531,0.051,0.739,0.047c-0.201-0.178-0.463-0.37-0.066-0.794
			c0.234,0.077,0.801,0.354,1.574,0.371c-0.228,0.439,0.048,0.528,0.075,1.005c0.013,0.435-0.854,0.63-0.828,1.064
			c0.027,0.434,0.652,0.474,1.507,0.524c0.6,0.013,1.143-0.128,2.072-0.111c0.216,0.077,0.593,0.092,0.822,0.111
			c-0.169,0.206-0.601,0.266-0.58,0.706c0.048,0.539,1.292,0.781,2.235,0.761c0,0.266,0.047,0.538,0.066,0.808
			c-0.437,0.528-2.342,0.794-4.024,0.743c0.043,0.6,0.802,0.842,0.855,1.649c0.015,0.845-2.423,0.706-2.463,1.575
			c0.026,0.102,0.337,0.259,0.478,0.31c0.376-0.044,0.35-0.265,0.9-0.225c1.085,0.05,1.414,0.753,2.647,0.855
			c0.53,0.006,1.279-0.115,1.607-0.452c0.034,0.139,0.147,0.293,0.229,0.411c-0.021,0.834-1.758,0.411-3.09,0.515
			c-0.229,0.034-2.927,1.73-3.115,1.905c0.027,0.107,0,0.245,0.02,0.349c0.169,0.064,0.479,0.03,0.653,0.041
			c0.322-0.178,0.641-0.454,1.278-0.38c0.351-0.04,0.957,0.007,1.308,0.084c0.011-0.438,0.45-0.939,1.412-0.874
			c0.524,0.016,1.03,0.41,1.69,0.457c1.426,0.121,3.802-0.185,4.731-0.151c1.258,0.104,2.422,0.182,3.64,0.31
			c1.124,0.077,1.628-0.139,2.435-0.623c-0.013-0.128-0.054-0.262-0.039-0.39c-0.452,0.031-0.902-0.168-1.817-0.387
			c0.646-0.649,2.697-0.908,2.645-1.948c-0.033-0.545-0.935-1.107-1.986-1.224c-0.604-0.01-0.565-0.115-1.137,0.108
			c0.129-0.067,0.297-0.105,0.417-0.175c-0.31,0.05-0.39,0.259-1.03,0.279c-0.121-0.047-0.012-0.256-0.046-0.383
			c0.242,0.006,0.444-0.179,0.411-0.34c-0.034-0.428-0.997-0.804-1.098-1.225c-0.174-1.423-2.463-1.911-4.011-2.873
			c-1.157-0.733-0.95-1.962-2.725-2.43c-0.587-0.221-1.158,0.027-2.088-0.225c0.148-0.178,0.384-0.353,0.688-0.364
			c-0.107-1.106,2.563-1.47,2.106-2.937c-1.75-0.195-3.5-0.319-5.271-0.444c-0.107-0.128-0.192-0.319-0.315-0.431
			c0.241-0.737,2.134-0.484,2.112-1.127c-0.041-0.101-0.632-0.488-0.93-0.525c-0.846-0.05-1.722-0.087-2.597-0.206
			c-0.45-0.037-1.359,0.276-1.378,0.542c0.019,0.273-0.277,0.4-0.29,0.838c-0.52-0.06-1.272,0.09-1.219,0.525
			c-0.021,0.104,0.324,0.296,0.478,0.34c-0.025,0.097-0.188,0.32-0.335,0.28c-0.143,0.046-0.661-0.183-0.673-0.505
			c-0.405-0.023-1.051-0.102-1.461-0.09C375.939,124.846,376.654,124.991,378.08,125.257z"/>
		
			<radialGradient id="SVGID_19_" cx="373.2227" cy="166.1302" r="47.9076" fx="373.2242" fy="202.861" gradientTransform="matrix(3.3374 0 0 3.4063 -901.0001 -319.6489)" gradientUnits="userSpaceOnUse">
			<stop  offset="0" style="stop-color:#90E1FF"/>
			<stop  offset="0.4718" style="stop-color:#51CFFF"/>
			<stop  offset="0.9892" style="stop-color:#0481D1"/>
		</radialGradient>
		<path fill="url(#SVGID_19_)" d="M381.641,131.441c-0.451,0.149-0.594,0.337-0.586,0.616c0.268,0.011,0.732,0.027,1.016,0.065
			c-0.006-0.217,0.013-0.425,0.033-0.643C381.984,131.434,381.768,131.431,381.641,131.441z"/>
		
			<radialGradient id="SVGID_20_" cx="373.2102" cy="166.1081" r="47.8834" fx="373.2117" fy="202.8203" gradientTransform="matrix(3.3374 0 0 3.4063 -901.0001 -319.6489)" gradientUnits="userSpaceOnUse">
			<stop  offset="0" style="stop-color:#90E1FF"/>
			<stop  offset="0.4718" style="stop-color:#51CFFF"/>
			<stop  offset="0.9892" style="stop-color:#0481D1"/>
		</radialGradient>
		<path fill="url(#SVGID_20_)" d="M358.269,109.846c0.061,0.01,0.133-0.031,0.173-0.074c-0.088-1.127-3.296-0.946-3.411-2.15
			c0.007-0.155,0.276-0.303,0.524-0.35c-0.786-0.067-1.325,0.125-2.159,0.145c-0.869-0.051-1.574,0.05-1.629-0.552
			c-0.328,0.084-0.337,0.091-0.99-0.013c-0.221,0.124-0.417,0.199-0.348,0.596c-0.875-0.354-1.838,0.108-3.069,0.094
			c-0.789,0.102-1.542-0.131-2.896-0.125c0,0.151-0.107,0.28,0,0.407c-0.308-0.091-0.497-0.135-1.265-0.283
			c-0.612,0.107-1.468,0.168-2.175,0.266c-0.456,0.017-0.819-0.226-1.169-0.354c-0.27,0.128-0.216,0.209-0.007,0.528
			c-0.37,0.115-0.983,0.313-1.635,0.279c-0.532,0.02-1.374-0.43-1.334-0.794c-0.012-0.316-0.35-0.329-0.517-0.595
			c-0.209,0.02-0.519,0.01-0.72,0.02c-0.612-0.04-0.922,0.42-1.635,0.492c0.013,0.131-0.027,0.178-0.015,0.319
			c-0.457-0.148-0.976-0.182-1.797-0.027c0.217,0.525,3.487,0.834,4.57,0.773c0.006,0.159,0.107,0.263,0.363,0.324
			c-1.03,0.174-3.392,0.427-4.724,0.495c0.907,0.339,2.415-0.054,3.882,0.057c-0.263,0.515-0.465,0.744-0.484,1.265
			c-0.235,0.021-0.6,0.155-0.835,0.236c1.993-0.047,2.673,0.525,3.991,0.69c2.491,0.32,4.832,0.67,8.251,0.727
			c3.136-0.068,4.811-0.686,7.018-0.979C355.429,111.121,357.568,110.431,358.269,109.846z"/>
		
			<radialGradient id="SVGID_21_" cx="373.1978" cy="166.1073" r="47.8696" fx="373.1993" fy="202.809" gradientTransform="matrix(3.3374 0 0 3.4063 -901.0001 -319.6489)" gradientUnits="userSpaceOnUse">
			<stop  offset="0" style="stop-color:#90E1FF"/>
			<stop  offset="0.4718" style="stop-color:#51CFFF"/>
			<stop  offset="0.9892" style="stop-color:#0481D1"/>
		</radialGradient>
		<path fill="url(#SVGID_21_)" d="M208.857,223.334c0.747,0.024,1.742-0.144,2.133-1.15c-0.404-0.347-0.565-1.222-1.164-1.474
			c-0.362,0.044-0.451,0.068-0.807,0c-0.101-0.114,0.007-0.413,0.027-0.555c-1.205,0.154-2.482-0.626-3.102-1.602
			c-0.067-0.192-0.291-0.814-0.795-0.831c-1.667,0.259-2.463-1.528-4.488-1.255c-2.005,0.323-2.974,1.676-3.762,3.856
			c0.034-0.21,0.189,0.067,0.363-0.054c0.553-0.733,1.703-1.982,2.531-2.177c0.342,0.071,0.356-0.185,0.599,0.135
			c-0.149,0.266-0.336,0.458,0.026,0.825c0.666-0.176,0.874-0.136,1.313-0.185c0.68-0.074,0.908,1.01,1.582,0.933
			c0.531-0.212,0.518-0.448,1.009-0.05c0.262,0.192,0.054,0.686,0.498,0.632c0.041,1.107,0.822,0.993,1.616,1.457
			c-0.062,0.35-0.196,0.717-0.552,0.767c-0.021,0.135-0.007,0.33-0.035,0.469C206.831,223.038,207.685,223.459,208.857,223.334z"/>
		
			<radialGradient id="SVGID_22_" cx="373.3199" cy="166.118" r="48.0023" fx="373.3214" fy="202.9213" gradientTransform="matrix(3.3374 0 0 3.4063 -901.0001 -319.6489)" gradientUnits="userSpaceOnUse">
			<stop  offset="0" style="stop-color:#90E1FF"/>
			<stop  offset="0.4718" style="stop-color:#51CFFF"/>
			<stop  offset="0.9892" style="stop-color:#0481D1"/>
		</radialGradient>
		<path fill="url(#SVGID_22_)" d="M198.547,220.814c-0.014,0.138,0.539-0.094,0.605-0.085c0.061-0.369,0.087-0.777,0.087-1.137
			c-0.074-0.006-0.074,0.014-0.127-0.05c-0.007,0.05-0.034,0.017-0.087,0.017c-0.028,0.155-0.014,0.363-0.04,0.521
			C199.2,220.074,198.627,220.34,198.547,220.814z"/>
		
			<radialGradient id="SVGID_23_" cx="373.3338" cy="166.1225" r="48.0261" fx="373.3354" fy="202.9442" gradientTransform="matrix(3.3374 0 0 3.4063 -901.0001 -319.6489)" gradientUnits="userSpaceOnUse">
			<stop  offset="0" style="stop-color:#90E1FF"/>
			<stop  offset="0.4718" style="stop-color:#51CFFF"/>
			<stop  offset="0.9892" style="stop-color:#0481D1"/>
		</radialGradient>
		<path fill="url(#SVGID_23_)" d="M205.081,227.056c0.04,0.552,0.189,1.124,0.767,1.121c0.835-0.191,1.064-0.374,1.744-0.603
			c-0.067-0.285-0.014-0.538-0.444-0.683c0.041,0.053,0.1,0.081,0.095,0.149c-0.404-0.182-0.977-0.536-1.623-0.502
			C205.378,226.706,205.121,226.78,205.081,227.056z"/>
		
			<radialGradient id="SVGID_24_" cx="373.2258" cy="166.1223" r="47.906" fx="373.2273" fy="202.8519" gradientTransform="matrix(3.3374 0 0 3.4063 -901.0001 -319.6489)" gradientUnits="userSpaceOnUse">
			<stop  offset="0" style="stop-color:#90E1FF"/>
			<stop  offset="0.4718" style="stop-color:#51CFFF"/>
			<stop  offset="0.9892" style="stop-color:#0481D1"/>
		</radialGradient>
		<path fill="url(#SVGID_24_)" d="M223.392,225.643c-0.013,0.854,0.754,0.872,1.621,0.842c0.425-0.042,0.775-0.058,1.083-0.57
			c-0.228-0.403-1.749-0.824-1.964-0.82C223.918,225.148,223.399,225.293,223.392,225.643z"/>
		
			<radialGradient id="SVGID_25_" cx="373.2179" cy="166.109" r="47.8904" fx="373.2195" fy="202.8266" gradientTransform="matrix(3.3374 0 0 3.4063 -901.0001 -319.6489)" gradientUnits="userSpaceOnUse">
			<stop  offset="0" style="stop-color:#90E1FF"/>
			<stop  offset="0.4718" style="stop-color:#51CFFF"/>
			<stop  offset="0.9892" style="stop-color:#0481D1"/>
		</radialGradient>
		<path fill="url(#SVGID_25_)" d="M211.528,227.365c0.021-0.189,0.055-0.464,0.081-0.656c0.33,0.26,0.176-0.023,0.68-0.04
			c0.754-0.081,2.02-0.373,2.605,0.061c0.277,0.316,0.163,1.073,0.667,1.026c0.774-0.084,0.646-1.494,1.453-1.561
			c0.357,0.05,0.162,0.438,0.593,0.371c0.504-0.011,0.727-0.32,1.137-0.727c0.767-0.064,1.535-0.095,2.336-0.145
			c-0.419-0.847-1.01-1.073-1.636-1.723c0.101,0.118,0.203,0.199,0.304,0.313c-1.071-0.727-1.354-2.015-3.339-1.898
			c-0.659,0.067-1.064,0.407-1.796,0.465c-0.64,0.098-0.788-0.465-1.374-0.451c-0.216-0.038-0.451,0.393-0.485,0.599
			c0.014,0.424,0.269,0.878,0.7,0.828c0.007,0.562-0.04,1.195,0.323,1.686c-0.727,0.528-1.266,0.215-2.577,0.266
			c-0.08,0.061-0.148,0.302-0.283,0.347C210.855,226.534,211.103,227.231,211.528,227.365z"/>
		
			<radialGradient id="SVGID_26_" cx="373.3074" cy="166.1082" r="48.0237" fx="373.3089" fy="202.928" gradientTransform="matrix(3.3374 0 0 3.4063 -901.0001 -319.6489)" gradientUnits="userSpaceOnUse">
			<stop  offset="0" style="stop-color:#90E1FF"/>
			<stop  offset="0.4718" style="stop-color:#51CFFF"/>
			<stop  offset="0.9892" style="stop-color:#0481D1"/>
		</radialGradient>
		<path fill="url(#SVGID_26_)" d="M234.134,247.431c0.005,0.231,0.43,0.009,0.645,0c0.424-0.007,0.752-0.91,0.861-1.225
			c0-0.183,0.007-0.495,0.007-0.67c-0.216,0-0.438,0-0.653,0C234.572,245.542,234.2,246.464,234.134,247.431z"/>
		
			<radialGradient id="SVGID_27_" cx="373.1878" cy="166.1089" r="47.8436" fx="373.1893" fy="202.7906" gradientTransform="matrix(3.3374 0 0 3.4063 -901.0001 -319.6489)" gradientUnits="userSpaceOnUse">
			<stop  offset="0" style="stop-color:#90E1FF"/>
			<stop  offset="0.4718" style="stop-color:#51CFFF"/>
			<stop  offset="0.9892" style="stop-color:#0481D1"/>
		</radialGradient>
		<path fill="url(#SVGID_27_)" d="M258.703,277.612c0.094,0.896,2.167,2.685,3.48,2.773c1.016-0.034,2.202-2.175,2.134-3.016
			c0.007-0.151-0.331-0.888-0.62-0.908c-0.35-0.005-1.124,1.033-1.339-0.246c-0.565-0.006-1.278-0.556-1.769-0.939
			c-0.096-0.02-0.237,0.007-0.33-0.015C259.255,275.288,258.669,276.146,258.703,277.612z"/>
		
			<radialGradient id="SVGID_28_" cx="373.251" cy="166.1858" r="47.8369" fx="373.2525" fy="202.8624" gradientTransform="matrix(3.3374 0 0 3.4063 -901.0001 -319.6489)" gradientUnits="userSpaceOnUse">
			<stop  offset="0" style="stop-color:#90E1FF"/>
			<stop  offset="0.4718" style="stop-color:#51CFFF"/>
			<stop  offset="0.9892" style="stop-color:#0481D1"/>
		</radialGradient>
		<path fill="url(#SVGID_28_)" d="M260.823,382.733c-0.424-0.107-0.518-0.149-1.11-0.381c-0.472-0.186-0.486,0.069-0.969-0.06
			c-0.25-0.16,0.066,0.357-0.424,0.197c0.04,0.229,0.154,0.186,0.193,0.417c0.109-0.154,0.305,0.071,0.432,0.15
			c0.497,0.098,0.539,0.355,0.66-0.118c0.545,0.194,1.494,0.554,1.366,0.116C260.823,382.95,260.91,382.887,260.823,382.733z"/>
		
			<radialGradient id="SVGID_29_" cx="373.2004" cy="166.2582" r="47.7497" fx="373.2019" fy="202.8679" gradientTransform="matrix(3.3374 0 0 3.4063 -901.0001 -319.6489)" gradientUnits="userSpaceOnUse">
			<stop  offset="0" style="stop-color:#90E1FF"/>
			<stop  offset="0.4718" style="stop-color:#51CFFF"/>
			<stop  offset="0.9892" style="stop-color:#0481D1"/>
		</radialGradient>
		<path fill="url(#SVGID_29_)" d="M258.332,381.731c-0.773-0.136-1.229-0.307-2.119-0.753c0.033,0.162,0.343,0.332,0.66,0.562
			c0.08,0.474-0.263-0.171-0.566,0.278c0.134,0.097,0.262,0.218,0.405,0.314c0.84,0.062,1.048-0.137,1.77-0.08
			C258.34,381.951,258.421,381.888,258.332,381.731z"/>
		
			<radialGradient id="SVGID_30_" cx="373.335" cy="166.0155" r="48.037" fx="373.3365" fy="202.8455" gradientTransform="matrix(3.3374 0 0 3.4063 -901.0001 -319.6489)" gradientUnits="userSpaceOnUse">
			<stop  offset="0" style="stop-color:#90E1FF"/>
			<stop  offset="0.4718" style="stop-color:#51CFFF"/>
			<stop  offset="0.9892" style="stop-color:#0481D1"/>
		</radialGradient>
		<path fill="url(#SVGID_30_)" d="M229.342,358.833c-0.142-0.078-0.188,0.045-0.181,0.225c0.356,0.381,0.721,0.754,1.083,1.136
			c-0.006-0.021-0.013-0.039-0.026-0.055c0.134-0.133,0.134-0.035,0-0.357C230.023,359.367,229.832,359.058,229.342,358.833z"/>
		
			<radialGradient id="SVGID_31_" cx="373.2115" cy="166.1069" r="47.884" fx="373.213" fy="202.8195" gradientTransform="matrix(3.3374 0 0 3.4063 -901.0001 -319.6489)" gradientUnits="userSpaceOnUse">
			<stop  offset="0" style="stop-color:#90E1FF"/>
			<stop  offset="0.4718" style="stop-color:#51CFFF"/>
			<stop  offset="0.9892" style="stop-color:#0481D1"/>
		</radialGradient>
		<path fill="url(#SVGID_31_)" d="M190.216,205.427c0.747-0.27-0.06,0.629,0.681,0.319c0.362-0.232,0.134-0.474,0.51-0.707
			c1.387-0.403,0.915,1.767,2.06,0.512c-0.565-0.727-0.094-1.016,0.161-1.837c-0.033-0.017-0.127-0.067-0.369-0.131
			c0.598-0.616,1.346-0.75,1.903-1.184c0.04,0.198-0.04,0.403,0.169,0.468c0.504-0.293,0.497-0.683,0.982-0.844
			c0.962-0.267,1.097,1.137,1.817,0.989c0.612-0.198,0.378-0.992,1.003-1.157c1.804-0.427,0.76,3.852,1.218,6.107
			c0.168,1.104,0.633,1.315,1.043,2.403c0.242,0.713,0.053,1.776,0.746,1.662c0.795-0.131,1.165-1.575,1.318-3.122
			c0.102-1.333-0.189-1.895-0.248-2.819c0.027-0.108,0.006-0.253,0.041-0.36c0.262-2.346-0.916-2.753-0.626-5.115
			c0.693-5.282,2.995-6.073,5.647-8.549c-0.068-0.031-0.075-0.031-0.116-0.104c0.385-0.461,0.357-0.667,0.983-1.135
			c0.565-0.222,0.76-0.86,1.407-1.174c0.343-0.218,0.545-0.636,0.734-0.932c-0.296-0.131-0.291-0.135-0.539-0.35
			c0.067-0.165,0.027-0.394,0.094-0.565c0.633-0.135,0.645-0.088,0.915-0.919c-0.37,0.01-0.504,0.053-0.611-0.434
			c0.335-0.122,0.733-0.492,0.82-1.04c0.014-0.222,0.082-0.478,0.121-0.7c-0.168,0.05-0.195,0.086-0.37,0.086
			c-0.33-0.491,0.094-0.329,0.174-1.049c0.183-0.68,0.088-1.821,0.176-2.365c0,0,0.061-0.573,0.208-0.913
			c-0.061,0.693,0.235,1.588,0.161,2.137c-0.101,0.219-0.093,0.518-0.127,0.764c-0.054,0.124,0,0.411,0.127,0.367
			c0.208-0.084,1.63-2.786,1.703-3.193c0.115-0.528-0.181-0.636-0.234-1.185c0.128-0.101,0.255-0.27,0.323-0.42
			c0.067,0.182,0.087,0.578,0.269,0.447c0.485-0.158,1.81-2.789,2.04-3.378c0,0-0.344-0.353-0.323-0.697
			c0.087-0.178,0.215-0.437,0.404-0.568c0.214-0.05,0.261-0.01,0.477-0.067c0.742-0.269,1.293-0.354,2.155-0.919
			c-0.525-0.296-0.89,0.202-1.38,0.38c-0.236,0.057-0.303,0.141-0.545,0.148c1.333-1.165,3.009-1.295,4.428-2.624
			c0.269,0.283,1.164-0.296,1.971-0.703c-0.047-0.151,0.006-0.354,0.088-0.492c0,0-0.599,0.626-0.741,0.649
			c-0.43,0.084-0.403-0.76-0.343-1.09c-0.228,0.04-0.155-0.356-0.121-0.555c0.551-2.665,2.503-2.473,3.715-3.829
			c0.68-0.481,0.754-0.633,1.48-0.834c0.808-0.262,1.629-0.804,2.2-1.652c-0.06-0.191-0.134-0.225-0.181-0.414
			c0.068,0,0.054-0.148,0-0.191c0.033-0.061,0.006-0.151,0.046-0.201c0.122,0.09,0.398-0.128,0.613-0.155
			c0.424-0.135,1.864-0.273,2.557-0.751c0.567-0.643,0.768-1.409,1.804-1.733c-0.208,1.026-0.302,1.067,0.788,0.8
			c-1.568,0.542-3.957,2.101-4.321,3.638c-0.033,0.606,0.539,1.538,0.97,1.45c0.565-0.138,1.978-2.221,3.444-2.961
			c0.291-0.243,5.223-2.924,5.384-3.506c0.176-0.794-1.621-0.532-2.026-0.371c-1.951,0.331-4.312-0.669-4.24-2.297
			c0.028,0.081,0.095,0.09,0.223-0.178c-0.061,0.01-0.142,0.013-0.223,0.017v0.004c-0.005,0-0.013,0-0.013,0
			c-0.37,0.02-0.867,0.081-1.318,0.185c0.606-0.606,2.854-1.483,3.136-2.867c0.276-1.252-1.769-0.541-3.076-0.114
			c-2.827,0.693-4.407,3.048-6.185,3.873c1.138-2.002,2.187-1.74,3.923-3.55c1.024-1.208,0.505-1.514,1.972-2.352
			c2.511-1.46,3.702-1.407,6.28-1.989c3.277-0.847,5.713-0.12,8.365-3.092c1.338-1.362,6.648-2.452,7.065-4.081
			c0.29-1.174-0.282-1.474-0.753-2.113c-0.545,0.198,0.288-0.559-0.417-0.616c-0.067-0.195,0.081-0.38,0.114-0.585
			c-1.756,1.036-5.243,2.567-6.931,2.974c-0.209,0.05-0.546,0.058-0.634-0.03c1.475-0.888,5.324-2.141,6.029-3.136
			c0.115-0.242-0.469-0.138-0.484-0.403c-1.701,0.568-4.999,0.891-4.662-0.724c-0.026-0.04,0-0.101,0.032-0.135
			c-1.472,0.374-2.152-0.05-2.873-0.246c0.33-0.218,1.003-0.511,1.185-1.093c0.148-0.498-0.336-0.592-0.113-1.131
			c-0.661,0.118-2.275-0.185-1.588-1.224c0.915-1.238-1.63-0.559-1.461-1.669c-0.162,0.155-0.512-0.107-0.862-0.198
			c-0.47,0.33-1.756,1.134-1.756,1.642c-0.066,0.831-1.131,1.366-2.363,2.254c-0.773,0.514-1.668,1.521-2.248,1.726
			c-0.988,0.447-1.251-0.697-1.937-0.499c-0.935,0.38,0.256-1.823,0.423-2.631c0.155-1.006-2.92,1.037-2.409-0.455
			c-1.392,0.562-0.869-0.239-2.302,0.374c-0.357,0.4-0.592,0.3-1.076,0.545c-0.599,0.283-1.038,0.413-1.421,0.532
			c-1.406,1.558-2.771,3.152-4.118,4.771c0.108,0.131,0.209,0.259,0.135,0.444c-0.29,1.047-1.709,2.079-2.355,2.564
			c0.511,1.349,1.352,0.058,1.613,0.538c0.424,0.953-0.558,1.696-0.989,2.992c-0.283,0.713-3.707,4.011-4.622,4.64
			c1.298,0.023-0.109,2.631,0.283,3.086c-0.236,0.363-0.982,1.464-1.232,1.979c-0.787,0.381-0.706,0.942-1.433,0.645
			c-0.822-0.302-1.765-1.076-1.373-2.284c0.289-0.851,0.558-1.56,0.464-1.951c-2.638,3.889-5.128,7.9-7.429,12.035
			c0.337,0.203,0.727,0.72,0.727,0.922c-0.04,0.868-0.62,0.838-0.201,1.467c0.465,0.757,1.729-0.101,2.542,0.354
			c0.54-0.286,0.6-0.091,1.077-0.488c0.855,0.491,0.888,0.477,0.667,1.399c-0.209,0.383-0.235,0.676-0.619,0.881
			c-0.821,0.226-0.68-0.191-0.934-0.471c-0.438,1.062-1.475,3.92-2.06,4.195c-0.607-0.625-0.275-0.74-0.115-1.545
			c-0.545,0.496-0.417,0.609-0.895,0.765c0.277-0.815,0.76-1.545,0.99-2.312c0.081-0.68-0.734-1.059-1.252-0.824
			c-0.673,0.377-0.35,1.315-1.73,2.176c-0.672,0.408-0.882,1.922-1.063,2.638c-0.177,0.644-0.277,1.185-0.479,1.808
			c-0.221,0.723-0.894,2.523-1.325,2.819c-0.727,0.276-0.679-0.097-0.49-0.732c0.402-1.475,1.473-4.422,2.361-6
			c-0.613,0.367-0.592,0.639-1.03,1.234c0.378-1.268,2.12-3.452,2.977-3.892c0.402-0.404,1.049-0.326,1.662-0.882
			c0.005-0.259,0.127-0.427,0.188-0.676c-0.814,0.408-1.003-0.004-1.871,0.431c-0.626,0.468-0.754,0.814-1.13,1.104
			c-0.235,0.175-0.35,0.185-0.397,0.077c-6.23,12.003-11.036,24.89-14.199,38.43C189.313,206.918,189.55,205.739,190.216,205.427z
			 M230.041,158.495c0.04,0-0.006,0.064,0,0.101C230.014,158.572,230.081,158.495,230.041,158.495z M229.886,159.978
			c-0.06,0.259-0.02,0.518-0.107,0.771C229.8,160.487,229.859,160.244,229.886,159.978z M209.893,172.331
			c0.108,0,0.066,0.158,0.02,0.255C209.96,172.488,209.839,172.432,209.893,172.331z M209.758,171.789
			c0.007-0.309,0.525-0.545,0.686-0.697c1.124-0.79,3.479-2.288,4.704-2.756c-0.579,2.312-3.479,2.746-4.785,3.281
			c-0.35-0.021-0.134-0.038-0.544,0.259c-0.033,0.071-0.013,0.118,0.02,0.158C209.779,171.967,209.698,171.91,209.758,171.789z
			 M205.243,175.564c0.006,0.381,0.061,0.663,0.431,0.455c0.606-0.212,0.558-0.481,0.713-0.831c0.559-0.66,1.124-0.892,1.723-1.134
			c0.612-0.263,0.68,0.108,0.989-0.155c0.275-0.323,0.512-0.481,0.829-0.757c-1.051,0.949-3.331,3.2-4.469,3.661
			C204.839,177.166,205.108,176.207,205.243,175.564z"/>
		
			<radialGradient id="SVGID_32_" cx="340.3326" cy="139.7258" r="0.0014" fx="340.3332" fy="139.7271" gradientTransform="matrix(3.3374 0 0 3.4063 -901.0001 -319.6489)" gradientUnits="userSpaceOnUse">
			<stop  offset="0" style="stop-color:#90E1FF"/>
			<stop  offset="0.4718" style="stop-color:#51CFFF"/>
			<stop  offset="0.9892" style="stop-color:#0481D1"/>
		</radialGradient>
		<path fill="url(#SVGID_32_)" d="M234.819,156.301c0,0,0.008,0,0.013-0.004C234.832,156.146,234.819,156.206,234.819,156.301z"/>
		
			<radialGradient id="SVGID_33_" cx="376.0912" cy="166.2709" r="50.7661" fx="376.0928" fy="205.1933" gradientTransform="matrix(3.3374 0 0 3.4063 -901.0001 -319.6489)" gradientUnits="userSpaceOnUse">
			<stop  offset="0" style="stop-color:#90E1FF"/>
			<stop  offset="0.4718" style="stop-color:#51CFFF"/>
			<stop  offset="0.9892" style="stop-color:#0481D1"/>
		</radialGradient>
		<path fill="url(#SVGID_33_)" d="M193.635,203.684c0.026-0.084,0.061-0.171,0.08-0.272
			C193.621,203.553,193.627,203.633,193.635,203.684z"/>
		
			<radialGradient id="SVGID_34_" cx="373.2106" cy="166.1081" r="47.8818" fx="373.2121" fy="202.8191" gradientTransform="matrix(3.3374 0 0 3.4063 -901.0001 -319.6489)" gradientUnits="userSpaceOnUse">
			<stop  offset="0" style="stop-color:#90E1FF"/>
			<stop  offset="0.4718" style="stop-color:#51CFFF"/>
			<stop  offset="0.9892" style="stop-color:#0481D1"/>
		</radialGradient>
		<path fill="url(#SVGID_34_)" d="M297.843,290.63c-1.346-0.387-2.1,0.054-3.5-0.285c-1.527-0.559-4.401-3.09-5.369-4.425
			c-0.99-0.531-2.593-1.179-4.395-1.568c-1.085,0.054-2.241,0.172-3.48,0.322c-1.871-0.062-2.153-1.487-4.123-1.565
			c-0.654-0.01-1.199,0.607-1.945,0.89c-0.162,0-0.451-0.026-0.626-0.025c-0.027-0.613,0.047-1.384-0.249-2.212
			c-0.087-0.551-0.916-0.6-1.737-1.027c-1.07-0.859-4.361-2.5-5.969-2.598c-1.393-0.046-2.329,1.711-3.17,3.084
			c-0.216,0.341-0.605,0.971-0.896,1c-0.215-0.029-0.443-0.773-0.47-0.976c-0.579-0.034-1.333-0.067-2.031-0.097
			c-0.243-0.923-0.6-1.589-1.521-2.062c-0.351-0.162-1.138-0.159-1.204-1.01c-0.089-2.673,2.503-5.72,3.855-7.48
			c-0.02-0.68-1.069-0.939-1.587-1.814c-0.452-0.986-1.562-3.818-1.637-4.866c-1.472-0.461-3.277-3.274-4.568-3.356
			c-0.136-0.061-0.351,0.005-0.5-0.016c0-0.046,0.007-0.13,0-0.174c-0.854,0-2.186-0.707-2.725-1.022
			c-0.633,0.03-1.306-0.018-2.1-0.044c-2.187-0.44-5.403-0.276-6.037-2.726c-0.37,0.034-1.03-0.259-1.17-0.541
			c-0.948-2.167-1.548-1.897-3.089-3.554c-0.672-0.043-1.374-0.02-2.085-0.029c-0.384-1.118-0.122-2.396-1.057-2.739
			c-1.185-0.489-2.538-0.69-3.136-1.882c-0.014-0.181-0.014-0.494-0.014-0.677c0.236,0.115,0.795,0.044,1.09-0.171
			c0,0-1.305-0.249-2.012-0.249c-0.235,0.112-1.656,0.23-1.77,0.411c-0.316,0.968-1.151,1.046-2.146,1.171
			c-0.58,0.009-1.353-0.203-1.367-0.922c-1.38-0.072-2.402,0.026-3.607-0.013c-0.43-0.112-0.78-0.684-0.788-1.489
			c-0.947-0.252-2.354-0.665-2.637-2.012c-0.43-0.007-0.68-0.007-1.11-0.017c0.1,0.979,0.888,0.6,1.198,1.539
			c-0.586,0-0.922,0.006-1.5,0.003c-0.64,0.518-1.535,0.324-1.542,1.538c0.02,0.981,0.706,1.55,0.746,2.506
			c0,0.279-0.275,1.287-0.565,1.309c-0.808,0.02-1.003-1.556-1.023-2.45c0-0.609,0.323-2.046,0.545-3.298
			c0.29,0.003,0.666-0.315,0.605-0.979c0-0.067-0.181-0.942-0.539-0.965c-0.854-0.006-0.955,1.231-1.748,1.544
			c-1.482,0.713-2.376,0.973-3.742,1.605c-0.735,0.37-1.271,0.532-1.481,1.804c-0.081,0.558-0.107,1.601-0.477,1.954
			c-0.324,0.404-0.788,0.482-0.842,1.316c-0.148,0.013-0.317,0.249-0.317,0.391c0.006,0.13,0.006,0.329,0.006,0.464
			c-0.491,0.175-0.188,0.097-0.625-0.017c-0.066,0.033-0.107,0.084-0.154,0.141c0.04-0.069,0.08-0.137,0.114-0.218
			c-0.781-1.026-0.983-3.281-2.43-3.338c-1.164-0.073-1.736,1.498-3.035,1.478c-0.74-0.088-0.862-1.433-1.293-1.844
			c-0.753-0.588-1.628-1.285-1.642-2.934c0.007-1.625-0.021-2.991,0.04-4.559c0.222-0.701,0.35-3.688,0.383-4.345
			c0.021-0.339,0.014-0.78,0.042-1.116c-0.841-0.269-0.895-1.467-1.978-1.42c-1.394,0.195-2.517,0.601-3.669,0.73
			c-0.431-0.031-0.431-0.185-0.39-0.751c0.006-0.115,0-0.246,0.013-0.36c0.303-0.508,0.619-0.723,0.699-1.497
			c0.094-1.151,0.122-2.242,0.169-3.439c0.195,0.021,0.141,0.077,0.288-0.041c-0.012,0.154-0.073,0.357-0.019,0.505
			c0.182-0.724,0.504-1.289,0.572-2.426c0.174-1.364,0.794-2.712,0.888-3.759c0.034-0.202,0.02-0.447,0.054-0.646
			c-0.431,0.071-0.599,0.168-0.848,0c-0.31-0.046-0.062-0.107-0.713-0.077c-0.983,0.158-2.066,0.296-2.302,2.393
			c-0.04,1.073-0.68,2.062-0.854,2.907c-0.034,0.272,0.068,1.081-0.491,1.175c0.013-0.145-0.034-0.505-0.545-0.306
			c-1.447,0.087-1.083,1.057-1.594,1.231c-0.572-0.061,0.174-0.353-0.398-0.733c-0.6-0.401-0.485-1.461-0.848-2.632
			c-0.013-0.076-0.067-0.144-0.094-0.218c-0.343,2.904-0.614,5.835-0.801,8.789c0.027,0.027,0.054,0.032,0.081,0.062
			c0.202,0.249-0.149,0.498,0.43,0.535c1.206-0.239,0.492-1.436,0.997-1.48c0.43-0.381,0.188-0.105,0.544,0.467
			c0.148,0.007,0.156,0.132,0.161-0.02c0.68,0.932,0.794,3.684,1.744,4.677c0.612,0.676,1.063,0.303,1.682,0.897
			c0.863,0.565,0.795,1.198,1.448,1.151c0.505,0.014,0.189-0.4,0.693-0.384c0.149,0,0.08-0.016,0.229-0.014
			c0.262,1.698,0.753,2.354,1.454,3.544c0.154,0.478,0.363,0.482,0.511,1.242c0.203,1.148-0.169,2.113,0.417,2.879
			c0.236-0.002,0.161,0.012,0.411,0.004c-0.148-0.134-0.061-0.417-0.007-0.667c-0.014,0.078,1.393,1.595,1.622,2.036
			c0.121,0.61,0.148,1.34,0.808,1.588c0.007,0.141,0.08,0.461,0.222,0.461c0.511-0.026,1.049-0.397,1.358,0.124
			c0.445,0.679,0.849,2.01,1.643,2.11c0.58-0.034,0.652-0.333,0.693-1.128c-0.121-0.107-0.383-0.43-0.397-0.699
			c-0.006-0.408,1.179-1.915,1.689-1.953c0.794-0.006,0.223,1.781,0.814,2.222c-0.094,0.296-0.303,0.481-0.303,0.76
			c0.013,0.212,0.431,0.501,0.592,0.619c0.061,0,0.115-0.008,0.115-0.067c0.007,0.145-0.081,0.329-0.068,0.484
			c-0.026,1.363,0.929,1.184,0.99,2.82c0.055,0.771-0.202,1.079-0.196,1.999c0.047,0.541,0.304,1.133,0.37,1.715
			c0.014,0.115,0,0.28,0.014,0.394c-0.08,0.189-0.133,0.408-0.188,0.604c0.027,0.201,0.243,0.577,0.558,0.808
			c-0.323,2.082-1.515,1.443-2.059,3.052c-0.363,1.229-0.539,3.165-1.864,3.048c0.377,3.379-0.181,4.741-0.02,6.423
			c-0.007,1.121,0.282,2.516,0.962,2.643c0.505,0.043,0.255-0.319,0.733,0.194c-0.201,1.157-0.881,1.303-1.245,2.353
			c-0.215,0.326-0.416,1.233-0.289,2.108c0.093,1.326,0.874,2.882,1.548,3.804c0.2,0.344,0.497,0.251,0.78,0.729
			c0.235,0.468,0.43,1.578,0.814,2.16c0.175,0.245,0.411,0.172,0.707,0.64c0.539,1.507,1.009,2.466,1.588,4.246
			c0.538,1.71,1.049,3.327,1.702,5.148c0.411,1.109,1.218,1.783,1.38,2.951c0.214,0.877,0.047,1.597,0.544,2.261
			c1.185,1.546,2.005,2.661,3.642,3.7c0.8,0.492,1.191,0.8,1.991,1.858c0.781,0.919,1.359,0.882,2.289,1.642
			c1.143,0.916,2.173,2.154,3.067,4.003c0.29,0.788,1.347,5.012,1.455,5.736c0.242,1.078,0,2.848,0.215,3.774
			c0.148,1.065,0.357,2.022,0.605,2.961c-0.047,0.734,0.034,1.71,0.095,2.211c0.107,0.165,0.088,0.389,0.128,0.589
			c0.558,2.258-0.081,3.272,0.518,5.684c0.222,1.086-0.122,1.645,0.491,2.892c0.465,1.56,0.835,3.072,1.319,4.541
			c0.102,1.369,0.343,2.317,0.418,3.448c0.054,0.277-0.203-0.11-0.349,0.205c-0.184,0.572,0.146,0.825-0.069,1.34
			c-0.282,1.11-0.518,1.491-0.04,2.759c0.04,0.473,0.706,1.775,0.928,1.97c0,0,0.323,0.356,0.518,0.71
			c-0.013,0.201,0.027,0.393-0.376,0.079c0.155,0.855,0.06,1.099,0.41,2.049c0.255,0.627,0.728,1.811,1.111,2.044
			c0.444,0.252-0.014-0.292,0.525-0.172c0.222,0.007,0.243,0.142,0.45,0.212c0.094,0.327,0.169,0.43,0.304,0.74
			c0.086,0.629,0.161,1.205,0.248,1.768c3.896,3.996,8.002,7.787,12.294,11.354c0.91-0.157,1.306,0.286,0.895-0.689
			c-0.639-1.253-2.671-1.668-3.485-3.277c-0.316-0.599,0.216-0.935,1.057-0.747c0.451,0.252,2.638,1.895,2.578,1.42
			c-0.068-1.075-0.499-1.857,0.261-2.453c-0.342-0.173-0.706-0.391-0.928-0.995c0.667,0.295,0.923,0.779,1.723,1.012
			c0.107,0.094,0.444-0.047,0.378-0.447c-0.128-0.31-0.446-0.432-0.735-0.699c-0.173-0.149-0.356,0.15-0.72,0.064
			c-0.598-0.264-1.716-1.767-1.978-2.507c0-0.337-0.087-0.621,0.385-0.418c1.244,0.447,1.655,1.228,2.994,1.662
			c0.491,0.117,1.286,0.162,1.225-0.167c-0.08-0.214-0.062-0.337-0.169-0.539c0.357-1.013-0.861-1.643-0.295-2.121
			c0.698-0.54,2.665,0.869,3.707,0.936c1.366,0.047,2.92,0.629,3.849-0.017c0.553-0.391,0.956-0.588,1.346-1.307
			c0.404-0.509,0.135-0.768-0.027-1.483c-0.174-0.713-1.245-0.895-1.643-1.628c-0.504-0.738-0.624-1.374-1.271-2.073
			c-0.268-0.132-1.347-0.812-1.486-1.335c-0.062-0.191,0.269-0.187,0.477-0.176c1.045,0.242,2.141,1.117,3.116,1.421
			c0.505,0.06,2.233,1.142,3.386,1.379c3.351,0.666,3.311-2.284,4.448-3.976c1.003-1.434,2.544-2.401,3.701-3.996
			c0.472-0.758,0.296,0.544,0.761-0.246c0.02,0,0.034,0.079,0.007,0.079c0.531-1.266,1.176-2.37,2.691-2.837
			c-0.35-1.977-0.733-3.851-1.068-5.893c-0.23-1.386-0.163,0.181,0.807-0.647c0.531-0.396,1.622-0.368,2.187-1.234
			c1.272-1.945,3.391-0.622,5.296-2.195c0.175-0.234,0.275-0.567,0.767-0.731c1.225-0.403,2.43-0.18,4.152-0.042
			c1.521,0.06,3.149-0.759,3.661-1.648c0.108-0.284-0.02-1.18,0.295-1.662c1.226-1.409,1.542-2.096,2.794-3.91
			c0.113-0.281,0.315-1.81,0.262-2.668c-0.041-0.545,0.719-1.386,1.049-1.767c0.068-0.207,0.397-0.601,0.383-0.951
			c-0.026-1.094,0.27-5.237,0.222-6.78c-0.161-1.988-1.764-2.958-0.499-4.202c0.869-0.683,1.891-0.926,2.74-2.124
			c0.518-0.71,0.929-0.938,1.441-1.658c2.388-3.395,6.278-6.61,6.169-13.252C300.278,293.068,299.76,291.31,297.843,290.63z"/>
		
			<radialGradient id="SVGID_35_" cx="327.9895" cy="153.6414" r="0.0036" fx="327.9919" fy="153.644" gradientTransform="matrix(3.3374 0 0 3.4063 -901.0001 -319.6489)" gradientUnits="userSpaceOnUse">
			<stop  offset="0" style="stop-color:#90E1FF"/>
			<stop  offset="0.4718" style="stop-color:#51CFFF"/>
			<stop  offset="0.9892" style="stop-color:#0481D1"/>
		</radialGradient>
		<path fill="url(#SVGID_35_)" d="M193.635,203.684c0,0.014,0,0.02-0.007,0.03C193.667,203.734,193.655,203.721,193.635,203.684z"/>
		
			<radialGradient id="SVGID_36_" cx="373.3865" cy="166.0945" r="48.0717" fx="373.3881" fy="202.9511" gradientTransform="matrix(3.3374 0 0 3.4063 -901.0001 -319.6489)" gradientUnits="userSpaceOnUse">
			<stop  offset="0" style="stop-color:#90E1FF"/>
			<stop  offset="0.4718" style="stop-color:#51CFFF"/>
			<stop  offset="0.9892" style="stop-color:#0481D1"/>
		</radialGradient>
		<path fill="url(#SVGID_36_)" d="M205.706,211.541c-0.04,0.549-0.073,1.41,0.372,1.383c0.121-0.074,0.255-0.286,0.288-0.424
			c0-0.485,0.115-0.936-0.464-0.992C206.003,211.507,205.801,211.561,205.706,211.541z"/>
		
			<radialGradient id="SVGID_37_" cx="373.022" cy="166.0896" r="47.6757" fx="373.0235" fy="202.6426" gradientTransform="matrix(3.3374 0 0 3.4063 -901.0001 -319.6489)" gradientUnits="userSpaceOnUse">
			<stop  offset="0" style="stop-color:#90E1FF"/>
			<stop  offset="0.4718" style="stop-color:#51CFFF"/>
			<stop  offset="0.9892" style="stop-color:#0481D1"/>
		</radialGradient>
		<path fill="url(#SVGID_37_)" d="M206.078,207.194c-0.35,0.05-0.607,0.44-0.749,0.723c0.425-0.014,0.734-0.105,1.279-0.226
			C206.474,207.483,206.555,207.018,206.078,207.194z"/>
		
			<radialGradient id="SVGID_38_" cx="373.6372" cy="166.1696" r="48.3653" fx="373.6388" fy="203.2513" gradientTransform="matrix(3.3374 0 0 3.4063 -901.0001 -319.6489)" gradientUnits="userSpaceOnUse">
			<stop  offset="0" style="stop-color:#90E1FF"/>
			<stop  offset="0.4718" style="stop-color:#51CFFF"/>
			<stop  offset="0.9892" style="stop-color:#0481D1"/>
		</radialGradient>
		<path fill="url(#SVGID_38_)" d="M207.739,208.408c-0.12-0.181-0.12-0.363-0.201-0.571
			C207.416,208.025,207.612,208.6,207.739,208.408z"/>
		
			<radialGradient id="SVGID_39_" cx="373.1114" cy="166.1096" r="47.7682" fx="373.1129" fy="202.7334" gradientTransform="matrix(3.3374 0 0 3.4063 -901.0001 -319.6489)" gradientUnits="userSpaceOnUse">
			<stop  offset="0" style="stop-color:#90E1FF"/>
			<stop  offset="0.4718" style="stop-color:#51CFFF"/>
			<stop  offset="0.9892" style="stop-color:#0481D1"/>
		</radialGradient>
		<path fill="url(#SVGID_39_)" d="M213.116,219.516c0.034-0.199,0-0.519,0.04-0.721c-0.195,0.464-0.686,0.926-1.177,0.831
			c-0.021,0.138-0.075,0.35-0.027,0.481c0.094,0,0.128,0,0.229-0.024C212.531,220.155,212.854,219.818,213.116,219.516z"/>
		
			<radialGradient id="SVGID_40_" cx="373.2184" cy="166.0775" r="47.8647" fx="373.2199" fy="202.7753" gradientTransform="matrix(3.3374 0 0 3.4063 -901.0001 -319.6489)" gradientUnits="userSpaceOnUse">
			<stop  offset="0" style="stop-color:#90E1FF"/>
			<stop  offset="0.4718" style="stop-color:#51CFFF"/>
			<stop  offset="0.9892" style="stop-color:#0481D1"/>
		</radialGradient>
		<path fill="url(#SVGID_40_)" d="M243.03,119.449c-0.52,0.433-1.024,0.879-1.534,1.316c0.524-0.401,1.137-0.69,1.83-1.04
			C243.198,119.564,243.118,119.492,243.03,119.449z"/>
		
			<radialGradient id="SVGID_41_" cx="373.2114" cy="166.1124" r="47.8873" fx="373.2129" fy="202.8276" gradientTransform="matrix(3.3374 0 0 3.4063 -901.0001 -319.6489)" gradientUnits="userSpaceOnUse">
			<stop  offset="0" style="stop-color:#90E1FF"/>
			<stop  offset="0.4718" style="stop-color:#51CFFF"/>
			<stop  offset="0.9892" style="stop-color:#0481D1"/>
		</radialGradient>
		<path fill="url(#SVGID_41_)" d="M232.599,131.048c-1.165,1.437,1.836-0.047,2.947-0.185c1.185-0.131,2.241-0.68,3.769-0.868
			c0.169-0.145,0.122,0.339,0.438,0.163c0.289,0.011,0.645-0.302,0.706-0.581c0.357-0.824-2.597-0.339-3.276-0.556
			c0.322-0.161,0.503-0.154,0.82-0.333c0.902,0.34,3.77-0.45,4.819-0.756c0.384-0.36,1.089-1.212,1.332-1.535
			c0.08-0.44-0.889-0.051-0.809-0.33c0.007-0.266,0.163-0.336,0.223-0.599c-0.362,0.195-0.6,0.222-0.982,0.36
			c0.236-0.66-0.498,0.057-1.447,0.249c-0.579,0.158-0.875-0.077-0.788-0.622c-0.309,0.05-0.423,0.168-0.713,0.295
			c0.007-0.205,0.107-0.235,0.183-0.426c0.309,0.016,0.417-0.156,0.82-0.337c0.007-0.161,0.087-0.195,0.141-0.347
			c-0.551,0.368-0.396,0.267-1.063,0.404c0.048-0.057,0.814-0.616,1.218-0.774c2.591-1.032,1.931,0.774,4.927-0.181
			c0.747-0.226,0.88-0.697,1.084-1.093c1.136-0.412,1.352-0.731,1.452-0.812c0.006-0.168,0.121-0.202,0.134-0.373
			c0.828-0.279,1.817-0.612,1.999-1.114c0.255-0.585-0.255-0.468-1.38-0.108c-0.336,0.122-0.612,0.282-1.01,0.229
			c-0.357-0.896-0.673,0.131-2.006,0.602c-0.834,0.29-0.942-0.043-0.854-0.501c-1.145,0.416-2.504,0.784-2.376,0.171
			c-0.693,0.322-0.962,0.417-1.42,0.43c0.639-0.572,1.077-0.79,2.074-1.373c-0.21-0.252-0.378-0.05-0.707,0.108
			c-0.632,0.219-1.044,0.4-1.474,0.609c-3.85,3.314-7.544,6.817-11.078,10.484C231.011,131.276,231.542,131.31,232.599,131.048z"/>
		
			<radialGradient id="SVGID_42_" cx="373.2124" cy="166.105" r="47.8805" fx="373.2139" fy="202.815" gradientTransform="matrix(3.3374 0 0 3.4063 -901.0001 -319.6489)" gradientUnits="userSpaceOnUse">
			<stop  offset="0" style="stop-color:#90E1FF"/>
			<stop  offset="0.4718" style="stop-color:#51CFFF"/>
			<stop  offset="0.9892" style="stop-color:#0481D1"/>
		</radialGradient>
		<path fill="url(#SVGID_42_)" d="M326.216,100.875c0.362-0.05,1.811-0.104,1.856-0.461c0.169-0.263-0.794-0.098-0.78-0.643
			c0.378,0.058,0.882-0.077,1.252-0.057c3.473-0.3,2.449,1.197,6.46,1.137c0.922,0.033,2.288,0.026,2.283-0.394
			c-0.023-1.564-5.182-1.897-8.191-2.705c-0.021-0.199,0.046-0.202,0.033-0.394c0.142-0.014,0.371,0.027,1.076-0.047
			c0.559,0.643,2.928,1.054,4.489,1.02c1.038,0.023,1.232-0.319,1.285-0.791c-0.026-0.316-0.391-0.477-0.888-0.565
			c0.028,0.007,0.054,0.01,0.081,0.017c0.733-0.481,3.956-0.346,4.582-1.093c-0.37,0.014-0.908-0.114-0.815-0.37
			c1.521-0.179,3.218-0.293,3.729-0.734c-1.044,0.026-3.23,0.205-3.276-0.45c0.127-0.488,1.271-0.397,2.63-0.361
			c-0.384-0.211,0.006-0.224,0.006-0.541c-0.026-0.579-1.184-0.487-1.204-1.009c-1.157-0.075-2.536,0.31-2.585-0.35
			c0.183-0.209,0.721-0.344,1.637-0.384c1.446-0.054,5.564,0.202,5.659-0.391c-0.021-0.942-3.042-0.441-3.459-0.781
			c0.443-0.014,1.07-0.08,1.453-0.148c-0.882-0.097-1.877-0.41-3.202-0.369c-0.889,0.032-1.536,0.154-2.403,0.053
			c0.538-0.155,0.397-0.656,1.393-0.861c1.475-0.155,5.317,0.733,5.458,0.02c0.135,0,0.108,0.091,0-0.276
			c1.582-0.221,3.54,0.094,3.58-0.451c0-0.172,0.121-0.172,0.189-0.162c-0.034-0.01-0.088-0.03-0.202-0.084
			c1.399-0.185,3.581,0.007,3.547-0.521c-0.512-0.027-1.117-0.01-1.657-0.033c3.515,0,5.156-0.455,7.733-0.465
			c0.444-0.054,1.858,0.104,1.919-0.303c-0.175-0.41-3.734-0.737-4.731-0.811c-0.808,0.058-1.198-0.152-1.535,0.171
			c-1.21-0.066-2.462-0.121-3.748-0.087c-1.225,0.074-1.46,0.249-2.893,0.31c-0.296-0.007-1.805-0.061-1.805-0.061
			c-1.71,0.006-3.485-0.011-5.242,0.054c-1.277,0.269-5.263,1.46-7.368,1.74c0.322-0.249,5.183-1.532,5.417-1.726
			c-0.034-0.519-0.484-0.539-1.925-0.458c-2.611,0.074-7.315,1.248-9.246,1.447c-0.579,0.061,2.759-0.892,3.029-1.044
			c-1.441,0.07-14.302,1.316-15.526,1.346c5.593-0.734,11.084-1.282,16.857-1.622c2.187-0.309,7.322-0.364,7.8-0.955
			c-1.918,0.087-4.582,0.188-6.71,0.087c-3.593-0.138-6.743-0.532-11.3-0.101c-3.693,0.384-7.152,0.707-10.799,1.272
			c-2.174,0.326-4.099,0.733-6.018,1.164c-15.977,4.239-30.97,10.935-44.597,19.671c2.82-0.552,4.583-0.175,5.242,0.835
			c-0.047,0.199-0.061,0.205-0.155,0.38c0.639-0.145,1.73-0.602,1.474-0.058c-0.223,0.657-1.69,0.915-1.878,1.561
			c-0.228,0.559,0.397,0.266,1.629-0.073c0.942-0.219,1.259-0.727,1.864-0.93c2.289-0.494,2.423,0.414,4.537,0.236
			c-0.135,0.215-0.096,0.403-0.841,0.585c-1.676,0.478-2.544,0.263-4.039,0.666c-0.653,0.135-0.511,0.061-1.23,0.336
			c0.02,0.209,0.188,0.324,0.471,0.38c-0.109,0.02-0.195,0.043-0.316,0.078c-0.652,0.282-1.555,0.531-1.69,0.968
			c-0.181,0.455,0.465,0.707,1.031,0.609c0.531-0.081,0.955-0.295,1.521-0.391c1.178-0.363,2.652-0.764,2.981-1.289
			c-0.889,0.102-1.4,0.007-1.898-0.053c1.616-0.256,3.776-0.858,5.054-1.02c-0.908,1.02-1.999,1.44-2.725,2.47
			c-0.896,0.027-0.963,0.06-2.006,0.539c-0.02,0.013,0.007,0.061-0.02,0.061c-1.568,0.858-2.174,1.49-3.297,2.328
			c-0.155,0.276-0.102,0.4-0.216,0.697c0.403-0.272,0.921-0.383,1.406-0.354c-0.303,0.337-0.781,0.555-0.921,0.929
			c-0.223,0.946,1.594,0.682,1.85,1.211c0.235,0.391,0.114,0.849,0.444,0.886c1.211,0.111,1.682-0.913,2.691-0.501
			c-0.545,0.222-1.124,0.346-1.265,0.851c-0.215,0.925,1.763,2.527,3.216,2.816c0.229,0-0.081,0.478,0.377,0.589
			c1.17,0.154,1.924-0.202,2.329,0.501c0.948-0.192,2.261-0.781,3.372-1.02c2.032-0.276,1.44,1.275,3.512,0.982
			c0.445-0.023,0.673-0.295,1.649-0.491c0.128,0.249,0.324,0.359,0.917,0.215c2.226-0.336,1.533-1.945,3.451-2.678
			c-0.074-0.464,0.202-1.289,0.316-1.918c0.196-0.932,4.2-1.925,4.509-3.011c-0.053-0.421-0.867-0.34-0.848-0.609
			c0.055-0.178,0.392-0.344,0.634-0.454c-0.054-0.131-0.054-0.165-0.108-0.293c0.29-1.074,4.462-1.38,6.333-2.214
			c0.741-0.391,0.525-0.606,1.762-0.972c-0.013,0.255,0,0.379-0.094,0.622c0.371-0.041,0.867-0.084,1.239-0.141
			c1.835-0.75,4.576-0.777,6.352-1.588c1.353-0.552-0.768-2.076,0.901-2.826c0.631-0.183,1.394-0.455,2.147-0.734
			c0.136-0.273,0.82-0.424,1.723-0.646c1.292-0.102,2.632-0.202,3.916-0.33c3.305-0.713,5.593-0.76,8.723-1.306
			c2.442-0.364,3.305-1.205,6.17-1.662c1.55-0.269,2.383-0.269,3.655-0.66C333.684,101.36,326.309,101.693,326.216,100.875z
			 M332.729,96.477c0.6,0.276,1.36,0.357,2.221,0.478c-1.144-0.155-2.907-0.007-3.466-0.431
			C331.847,96.484,332.352,96.504,332.729,96.477z"/>
		
			<radialGradient id="SVGID_43_" cx="373.2114" cy="165.9665" r="47.7324" fx="373.2129" fy="202.5629" gradientTransform="matrix(3.3374 0 0 3.4063 -901.0001 -319.6489)" gradientUnits="userSpaceOnUse">
			<stop  offset="0" style="stop-color:#90E1FF"/>
			<stop  offset="0.4718" style="stop-color:#51CFFF"/>
			<stop  offset="0.9892" style="stop-color:#0481D1"/>
		</radialGradient>
		<path fill="url(#SVGID_43_)" d="M345.544,93.597c-0.445,0-1.031,0-1.469,0c-0.222,0.131-0.733,0.114-0.828,0.327
			c0.007,0.198,0.485,0.36,1.063,0.36c0.861-0.007,2.248-0.293,2.625-0.36c-0.411-0.004-0.969-0.004-1.392-0.004
			C345.705,93.92,345.536,93.772,345.544,93.597z"/>
		
			<radialGradient id="SVGID_44_" cx="373.2158" cy="166.1034" r="47.8834" fx="373.2173" fy="202.8156" gradientTransform="matrix(3.3374 0 0 3.4063 -901.0001 -319.6489)" gradientUnits="userSpaceOnUse">
			<stop  offset="0" style="stop-color:#90E1FF"/>
			<stop  offset="0.4718" style="stop-color:#51CFFF"/>
			<stop  offset="0.9892" style="stop-color:#0481D1"/>
		</radialGradient>
		<path fill="url(#SVGID_44_)" d="M254.012,148.356c0.115-0.128,0.067-0.35,0.096-0.528c0.141-0.033,0.31-0.242,0.417-0.356
			c-0.337-0.148-0.707-0.195-1.126-0.061c-0.504,0.07-0.558,0.441-1.183,0.663c0.046-0.168,0.054-0.342,0.093-0.511
			c0.667-1.131,2.242-2.052,2.511-3.304c0.054-0.215-0.121-0.458-0.404-0.458c-1.218,0.266-1.791,1.208-2.49,2.129
			c-1.313,1.492-2.658,4.206-4.738,5.492c0.028,0.185,0.303,0.212,0.519,0.178c-0.081,0.084-0.081,0.232-0.067,0.347
			c-0.042,0.034-1.414,1.144-1.474,1.369c-0.107,0.132,0.242,0.522,0.606,0.441c0.949-0.098,1.171-0.515,2.281-0.781
			c0.807-0.084,1.09,0.154,2.106,0.006c0.511-0.033,0.922-0.346,1.521-0.565c0.315,0.609,1.312,0.023,2.053-0.128
			c-0.284,0.296-0.962,0.447-0.976,1.105c-0.074,0.084,0.303-0.044,0.45-0.08c0.977-0.108,1.731-1.162,2.437-1.99
			c0.559,0.36-0.108,1.591,0.518,1.501c0.203-0.051,0.371,0.068,0.586,0.02c-0.021,0.225,0.013,0.666,0.579,0.616
			c0.841-0.083,1.386-0.878,1.446-1.652c0.128-0.559-0.503-0.505-0.356-1.175c-0.404,0.28-0.201,0.414-1.043,0.518
			c0.086-0.397-0.397-0.575-0.391-0.868c0.061-0.23,0.761-0.481,0.907-1.023c-0.301,0.021-0.732,0.189-0.868,0.32
			c0.194-0.808,0.384-1.353,0.391-1.965c-0.296,0.282-1.379,0.41-2.187,0.39c-0.269,0.135-0.653,0.283-0.936,0.394
			c0.075-0.067,0.027-0.194,0.047-0.292C254.914,148.161,254.45,148.313,254.012,148.356z"/>
		
			<radialGradient id="SVGID_45_" cx="373.3288" cy="166.0707" r="47.9614" fx="373.3303" fy="202.8428" gradientTransform="matrix(3.3374 0 0 3.4063 -901.0001 -319.6489)" gradientUnits="userSpaceOnUse">
			<stop  offset="0" style="stop-color:#90E1FF"/>
			<stop  offset="0.4718" style="stop-color:#51CFFF"/>
			<stop  offset="0.9892" style="stop-color:#0481D1"/>
		</radialGradient>
		<path fill="url(#SVGID_45_)" d="M213.717,155.022c0.065,0.044,0.059-0.067,0.14-0.081c0.17-0.669-0.194-0.574-0.706-0.319
			c-0.067,0.122-0.041,0.229-0.121,0.343C213.264,155.378,213.311,155.251,213.717,155.022z"/>
		
			<radialGradient id="SVGID_46_" cx="373.1971" cy="166.1063" r="47.9007" fx="373.1987" fy="202.8318" gradientTransform="matrix(3.3374 0 0 3.4063 -901.0001 -319.6489)" gradientUnits="userSpaceOnUse">
			<stop  offset="0" style="stop-color:#90E1FF"/>
			<stop  offset="0.4718" style="stop-color:#51CFFF"/>
			<stop  offset="0.9892" style="stop-color:#0481D1"/>
		</radialGradient>
		<path fill="url(#SVGID_46_)" d="M433.074,173.202c-1.317-0.286-1.667,0.343-2.719,0.195c-1.156-0.091-1.95-1.201-3.646-0.62
			c0.013,0.156,0.061,0.385,0.047,0.536c0.256,0.306,0.982,0.434,1.198,0.505c1.393,0.538,2.551,1.938,3.972,2.402
			c0.039,0.188,0.457,0.394,0.672,0.374c0.215-0.014,0.41-0.283,0.431-0.481c-0.047-0.528-0.464-0.72-0.518-1.269
			c-0.082-0.256,0.321-0.801,0.321-0.801C432.907,173.784,432.96,173.454,433.074,173.202z"/>
		
			<radialGradient id="SVGID_47_" cx="373.1782" cy="166.0785" r="47.8846" fx="373.1797" fy="202.7917" gradientTransform="matrix(3.3374 0 0 3.4063 -901.0001 -319.6489)" gradientUnits="userSpaceOnUse">
			<stop  offset="0" style="stop-color:#90E1FF"/>
			<stop  offset="0.4718" style="stop-color:#51CFFF"/>
			<stop  offset="0.9892" style="stop-color:#0481D1"/>
		</radialGradient>
		<path fill="url(#SVGID_47_)" d="M418.701,160.379c-0.215-0.087-0.424-0.518-0.416-0.845c-0.38,0.045-0.728,0.693-1.28,0.592
			c-0.175,0.051-0.403,0.074-0.587,0.088c0.346,0.538,0.931,2.789,1.818,3.059C418.471,162.879,418.566,161.227,418.701,160.379z"/>
		
			<radialGradient id="SVGID_48_" cx="373.1768" cy="166.085" r="47.9001" fx="373.1783" fy="202.81" gradientTransform="matrix(3.3374 0 0 3.4063 -901.0001 -319.6489)" gradientUnits="userSpaceOnUse">
			<stop  offset="0" style="stop-color:#90E1FF"/>
			<stop  offset="0.4718" style="stop-color:#51CFFF"/>
			<stop  offset="0.9892" style="stop-color:#0481D1"/>
		</radialGradient>
		<path fill="url(#SVGID_48_)" d="M417.233,166.237c0.075,0.456-0.396,0.938-0.384,1.477c0.048,0.521,0.162,1.548,1.009,1.686
			c0.587,0,2.067-0.854,2.06-1.928c-0.136-1.224,0.007-1.81-0.828-3.146c-0.222,0.007-0.604-0.441-1.144-0.559
			c-0.666-0.03-0.773,0.663-1.702,0.801C416.305,165.089,417.187,165.574,417.233,166.237z"/>
		
			<radialGradient id="SVGID_49_" cx="373.2061" cy="166.0177" r="47.7718" fx="373.2076" fy="202.6443" gradientTransform="matrix(3.3374 0 0 3.4063 -901.0001 -319.6489)" gradientUnits="userSpaceOnUse">
			<stop  offset="0" style="stop-color:#90E1FF"/>
			<stop  offset="0.4718" style="stop-color:#51CFFF"/>
			<stop  offset="0.9892" style="stop-color:#0481D1"/>
		</radialGradient>
		<path fill="url(#SVGID_49_)" d="M404.197,166.819c-0.073-0.178-0.518-0.751-0.503-0.882c-0.439,0.085-0.915,0.263-1.408,0.438
			c0.02,0.094,0.922,0.747,1.226,0.777C403.726,167.19,404.172,167.017,404.197,166.819z"/>
		
			<radialGradient id="SVGID_50_" cx="373.311" cy="166.0128" r="47.7209" fx="373.3126" fy="202.6004" gradientTransform="matrix(3.3374 0 0 3.4063 -901.0001 -319.6489)" gradientUnits="userSpaceOnUse">
			<stop  offset="0" style="stop-color:#90E1FF"/>
			<stop  offset="0.4718" style="stop-color:#51CFFF"/>
			<stop  offset="0.9892" style="stop-color:#0481D1"/>
		</radialGradient>
		<path fill="url(#SVGID_50_)" d="M417.536,133.44c0.101,0.327,0.605,0.582,1.278,0.613c0.008,0.087,0.008,0.171,0.04,0.259
			c-0.012-0.175,0.168-0.064,0.096-0.33c-0.096-0.33-0.392-0.302-0.473-0.71c-0.301-0.058-0.691-0.097-0.988-0.155
			C417.496,133.228,417.529,133.325,417.536,133.44z"/>
		
			<radialGradient id="SVGID_51_" cx="373.1286" cy="166.1226" r="47.9564" fx="373.1301" fy="202.8908" gradientTransform="matrix(3.3374 0 0 3.4063 -901.0001 -319.6489)" gradientUnits="userSpaceOnUse">
			<stop  offset="0" style="stop-color:#90E1FF"/>
			<stop  offset="0.4718" style="stop-color:#51CFFF"/>
			<stop  offset="0.9892" style="stop-color:#0481D1"/>
		</radialGradient>
		<path fill="url(#SVGID_51_)" d="M419.636,134.409c-0.047-0.027-0.128-0.094-0.128-0.147c-0.101,0.03-0.135,0.087-0.228,0.121
			c0.039,0.03,0.411,0.293,0.754,0.309c1.103,0.249,0.511-0.999,1.386-1.016c-0.355-0.522-0.471-0.875-1.493-1.07
			c-0.343-0.006-0.868,0.669-0.821,0.804c0.02,0.198,0.679,0.505,1.184,0.697C420.297,134.277,419.965,134.452,419.636,134.409z"/>
		
			<radialGradient id="SVGID_52_" cx="373.1259" cy="166.2109" r="48.0339" fx="373.1274" fy="203.0385" gradientTransform="matrix(3.3374 0 0 3.4063 -901.0001 -319.6489)" gradientUnits="userSpaceOnUse">
			<stop  offset="0" style="stop-color:#90E1FF"/>
			<stop  offset="0.4718" style="stop-color:#51CFFF"/>
			<stop  offset="0.9892" style="stop-color:#0481D1"/>
		</radialGradient>
		<path fill="url(#SVGID_52_)" d="M433.357,132.46c0.008,0.205,0.155,0.489,0.58,0.57c0.189,0.026,0.726-0.024,0.733-0.122
			c-0.008-0.138-0.121-0.231-0.088-0.363c0.101,0,0.228-0.139,0.282-0.306c-0.17-0.143-0.424-0.279-0.593-0.425
			c0,0-0.35,0.037-0.35,0.208c0.128,0.104,0.263,0.31,0.418,0.435C433.95,132.447,433.748,132.494,433.357,132.46z"/>
		
			<radialGradient id="SVGID_53_" cx="373.1757" cy="166.0748" r="47.9042" fx="373.1772" fy="202.803" gradientTransform="matrix(3.3374 0 0 3.4063 -901.0001 -319.6489)" gradientUnits="userSpaceOnUse">
			<stop  offset="0" style="stop-color:#90E1FF"/>
			<stop  offset="0.4718" style="stop-color:#51CFFF"/>
			<stop  offset="0.9892" style="stop-color:#0481D1"/>
		</radialGradient>
		<path fill="url(#SVGID_53_)" d="M457.154,183.586c-1.354-0.525-2.907-1.189-4.496-1.11c0.807,0.589,2.182,0.936,2.773,0.989
			C455.916,183.626,456.273,183.929,457.154,183.586z"/>
		
			<radialGradient id="SVGID_54_" cx="373.1998" cy="166.1367" r="47.9101" fx="373.2014" fy="202.8694" gradientTransform="matrix(3.3374 0 0 3.4063 -901.0001 -319.6489)" gradientUnits="userSpaceOnUse">
			<stop  offset="0" style="stop-color:#90E1FF"/>
			<stop  offset="0.4718" style="stop-color:#51CFFF"/>
			<stop  offset="0.9892" style="stop-color:#0481D1"/>
		</radialGradient>
		<path fill="url(#SVGID_54_)" d="M472.061,185.015c-0.916,0.031-2.411,0.368-3.272,0.721c0.054,0.118,0.209,0.424,0.357,0.417
			c0.015,0.199,0.249,0.448,0.472,0.438c0.634,0.192,1.602,0.02,1.75-0.41c0.022-0.209-0.203-0.643,0.022-0.69
			C471.823,185.295,471.958,185.709,472.061,185.015z"/>
		
			<radialGradient id="SVGID_55_" cx="373.2174" cy="166.1089" r="47.8787" fx="373.219" fy="202.8175" gradientTransform="matrix(3.3374 0 0 3.4063 -901.0001 -319.6489)" gradientUnits="userSpaceOnUse">
			<stop  offset="0" style="stop-color:#90E1FF"/>
			<stop  offset="0.4718" style="stop-color:#51CFFF"/>
			<stop  offset="0.9892" style="stop-color:#0481D1"/>
		</radialGradient>
		<path fill="url(#SVGID_55_)" d="M501.259,241.8c0.108,0.39,0.137,0.602,0.356,0.596c0.58-0.01,0.466-0.633,0.546-0.973
			C501.22,241.451,501.805,241.357,501.259,241.8z"/>
		
			<radialGradient id="SVGID_56_" cx="373.235" cy="166.1335" r="47.9237" fx="373.2365" fy="202.8766" gradientTransform="matrix(3.3374 0 0 3.4063 -901.0001 -319.6489)" gradientUnits="userSpaceOnUse">
			<stop  offset="0" style="stop-color:#90E1FF"/>
			<stop  offset="0.4718" style="stop-color:#51CFFF"/>
			<stop  offset="0.9892" style="stop-color:#0481D1"/>
		</radialGradient>
		<path fill="url(#SVGID_56_)" d="M240.554,152.048c0.578-0.064,0.766-0.276,1.008-0.552c-1.298-0.307-2.268-1.08-4.388-0.213
			C237.855,151.633,239.484,152.327,240.554,152.048z"/>
		
			<radialGradient id="SVGID_57_" cx="373.1969" cy="166.1672" r="47.9136" fx="373.1984" fy="202.9025" gradientTransform="matrix(3.3374 0 0 3.4063 -901.0001 -319.6489)" gradientUnits="userSpaceOnUse">
			<stop  offset="0" style="stop-color:#90E1FF"/>
			<stop  offset="0.4718" style="stop-color:#51CFFF"/>
			<stop  offset="0.9892" style="stop-color:#0481D1"/>
		</radialGradient>
		<path fill="url(#SVGID_57_)" d="M236.495,157.27c-0.147,0.064-0.235,0.326-0.335,0.464c-0.042,0.407,2.201,0.956,2.625,0.865
			c0.146-0.01,0.779-0.508,0.929-0.824c-0.021-0.115,0.046-0.236,0.067-0.357c-0.666,0.158-1.339,0.276-2.013,0.451
			C237.034,157.818,236.739,157.791,236.495,157.27z"/>
		
			<radialGradient id="SVGID_58_" cx="373.291" cy="166.1054" r="47.9546" fx="373.2925" fy="202.8722" gradientTransform="matrix(3.3374 0 0 3.4063 -901.0001 -319.6489)" gradientUnits="userSpaceOnUse">
			<stop  offset="0" style="stop-color:#90E1FF"/>
			<stop  offset="0.4718" style="stop-color:#51CFFF"/>
			<stop  offset="0.9892" style="stop-color:#0481D1"/>
		</radialGradient>
		<path fill="url(#SVGID_58_)" d="M242.262,158.612c0.729-0.216,1.628-0.673,1.676-1.087c0.087-0.108,0.055-0.283,0.074-0.414
			c-1.675,0.333-0.565-0.263-0.404-0.778c0.027-0.232-0.29-0.232-0.384-0.491c-0.768,0.282-1.891,1.995-1.951,2.342
			C241.18,158.518,241.549,158.706,242.262,158.612z"/>
	</g>
</g>
<ellipse opacity="0.2" fill="#FFFFFF" cx="337.579" cy="179.152" rx="120.623" ry="94.247"/>
<polyline fill="none" stroke="#CE2E6F" stroke-width="4" stroke-miterlimit="10" points="338.889,58.364 340.199,266.491 
	506.017,234.098 "/>
<path fill="none" stroke="#F4F2F3" stroke-width="5" stroke-miterlimit="10" d="M315.991,44.866
	c-96.446,7.406-168.645,89.514-161.422,183.577"/>
<text transform="matrix(1 0 0 1 325.9203 50.852)" fill="#F4F4F4" font-family="'MyriadPro-Bold'" font-size="30">90 </text>
<line fill="none" stroke="#CE2E6F" stroke-width="4" stroke-miterlimit="10" x1="340.199" y1="266.491" x2="418.967" y2="318.677"/>
<path fill="none" stroke="#F4F2F3" stroke-width="5" stroke-miterlimit="10" d="M494.732,360.193
	c44.364-15.247,66.904-66.457,50.394-114.496"/>
<text transform="matrix(1 0 0 1 519.5062 234.0987)" fill="#F4F4F4" font-family="'MyriadPro-Bold'" font-size="30">90 </text>
<text transform="matrix(1 0 0 1 470.4248 380.9777)" fill="#F4F4F4" font-family="'MyriadPro-Bold'" font-size="30">0 </text>
<text transform="matrix(1 0 0 1 148.7934 258.106)" fill="#F4F4F4" font-family="'MyriadPro-Bold'" font-size="30">0 </text>
<text transform="matrix(1 0 0 1 569.1415 318.6773)" fill="#F4F4F4" font-family="'MyriadPro-Bold'" font-size="30">Longitude</text>
<text transform="matrix(1 0 0 1 50.951 119.4491)" fill="#F4F4F4" font-family="'MyriadPro-Bold'" font-size="30">Latitude</text>
</svg>
